<svg xmlns="http://www.w3.org/2000/svg" width="0" height="0" style="position:absolute" aria-hidden="true">
<defs>
  <symbol id="plane-normal" viewBox="0 0 64 64">
    <ellipse cx="32" cy="53.5" rx="16" ry="4.2" fill="#000" opacity="0.16"/><path d="M28.6 27 C22 29 14 33 8.3 36.8 C6.2 38.1 6.6 40.4 8.9 39.9 C16 38 23 36 28.6 34.4 Z" fill="#e8e0cf" stroke="#cdbf9f" stroke-width="0.7"/><path d="M35.4 27 C42 29 50 33 55.7 36.8 C57.8 38.1 57.4 40.4 55.1 39.9 C48 38 41 36 35.4 34.4 Z" fill="#e8e0cf" stroke="#cdbf9f" stroke-width="0.7"/><path d="M29.2 48.5 C26 50 22 52 20.4 53.6 C19.7 54.2 20.1 55.2 21 54.9 C24 54 27.4 52.6 29.6 51.6 Z" fill="#e8e0cf" stroke="#cdbf9f" stroke-width="0.7"/><path d="M34.8 48.5 C38 50 42 52 43.6 53.6 C44.3 54.2 43.9 55.2 43 54.9 C40 54 36.6 52.6 34.4 51.6 Z" fill="#e8e0cf" stroke="#cdbf9f" stroke-width="0.7"/><ellipse cx="17.5" cy="35.5" rx="2.2" ry="3" fill="#4ab4d6" stroke="#cdbf9f" stroke-width="0.5"/><ellipse cx="17.5" cy="33.4" rx="1.4" ry="1.1" fill="#2a3050" opacity="0.55"/><ellipse cx="46.5" cy="35.5" rx="2.2" ry="3" fill="#4ab4d6" stroke="#cdbf9f" stroke-width="0.5"/><ellipse cx="46.5" cy="33.4" rx="1.4" ry="1.1" fill="#2a3050" opacity="0.55"/><path d="M32 6.5 C34.2 6.5 35.5 9.5 35.9 13.5 C36.5 20 36.9 28 36.4 38 C36.0 46 34.4 53 32 56 C29.6 53 28.0 46 27.6 38 C27.1 28 27.5 20 28.1 13.5 C28.5 9.5 29.8 6.5 32 6.5 Z" fill="#f4eede" stroke="#cdbf9f" stroke-width="0.9"/><path d="M29.6 12 C28.8 20 28.6 30 29 42" fill="none" stroke="#ffffff" stroke-width="1.3" stroke-linecap="round" opacity="0.25"/><path d="M28.9 13.5 C30 11 34 11 35.1 13.5 C35.6 16.2 34 18.4 32 18.4 C30 18.4 28.4 16.2 28.9 13.5 Z" fill="#2a3050"/><ellipse cx="30.6" cy="14.2" rx="1.1" ry="1.5" fill="#bfe9ff" opacity="0.5"/><circle cx="32" cy="26" r="1.0" fill="#2a3050" opacity="0.45"/><circle cx="32" cy="30" r="1.0" fill="#2a3050" opacity="0.45"/><circle cx="32" cy="34" r="1.0" fill="#2a3050" opacity="0.45"/>
  </symbol>
  <symbol id="plane-vip" viewBox="0 0 64 64">
    <ellipse cx="32" cy="53.5" rx="16" ry="4.2" fill="#000" opacity="0.16"/><path d="M28.6 27 C22 29 14 33 8.3 36.8 C6.2 38.1 6.6 40.4 8.9 39.9 C16 38 23 36 28.6 34.4 Z" fill="#eabf4e" stroke="#d8a93b" stroke-width="0.7"/><path d="M35.4 27 C42 29 50 33 55.7 36.8 C57.8 38.1 57.4 40.4 55.1 39.9 C48 38 41 36 35.4 34.4 Z" fill="#eabf4e" stroke="#d8a93b" stroke-width="0.7"/><path d="M29.2 48.5 C26 50 22 52 20.4 53.6 C19.7 54.2 20.1 55.2 21 54.9 C24 54 27.4 52.6 29.6 51.6 Z" fill="#eabf4e" stroke="#d8a93b" stroke-width="0.7"/><path d="M34.8 48.5 C38 50 42 52 43.6 53.6 C44.3 54.2 43.9 55.2 43 54.9 C40 54 36.6 52.6 34.4 51.6 Z" fill="#eabf4e" stroke="#d8a93b" stroke-width="0.7"/><ellipse cx="17.5" cy="35.5" rx="2.2" ry="3" fill="#9a6fd4" stroke="#d8a93b" stroke-width="0.5"/><ellipse cx="17.5" cy="33.4" rx="1.4" ry="1.1" fill="#2a3050" opacity="0.55"/><ellipse cx="46.5" cy="35.5" rx="2.2" ry="3" fill="#9a6fd4" stroke="#d8a93b" stroke-width="0.5"/><ellipse cx="46.5" cy="33.4" rx="1.4" ry="1.1" fill="#2a3050" opacity="0.55"/><path d="M32 6.5 C34.2 6.5 35.5 9.5 35.9 13.5 C36.5 20 36.9 28 36.4 38 C36.0 46 34.4 53 32 56 C29.6 53 28.0 46 27.6 38 C27.1 28 27.5 20 28.1 13.5 C28.5 9.5 29.8 6.5 32 6.5 Z" fill="#f4cf5e" stroke="#d8a93b" stroke-width="0.9"/><path d="M29.6 12 C28.8 20 28.6 30 29 42" fill="none" stroke="#ffffff" stroke-width="1.3" stroke-linecap="round" opacity="0.25"/><path d="M28.9 13.5 C30 11 34 11 35.1 13.5 C35.6 16.2 34 18.4 32 18.4 C30 18.4 28.4 16.2 28.9 13.5 Z" fill="#2a3050"/><ellipse cx="30.6" cy="14.2" rx="1.1" ry="1.5" fill="#bfe9ff" opacity="0.5"/><circle cx="32" cy="26" r="1.0" fill="#2a3050" opacity="0.45"/><circle cx="32" cy="30" r="1.0" fill="#2a3050" opacity="0.45"/><circle cx="32" cy="34" r="1.0" fill="#2a3050" opacity="0.45"/><rect x="27.6" y="21" width="8.8" height="2.2" rx="1.1" fill="#9a6fd4" opacity="0.9"/>
  </symbol>
  <symbol id="plane-selected" viewBox="0 0 64 64">
    <circle cx="32" cy="32" r="30" fill="none" stroke="#5dca7a" stroke-width="2.4" opacity="0.95"/><circle cx="32" cy="32" r="30" fill="none" stroke="#5dca7a" stroke-width="6" opacity="0.18"/><ellipse cx="32" cy="53.5" rx="16" ry="4.2" fill="#000" opacity="0.16"/><path d="M28.6 27 C22 29 14 33 8.3 36.8 C6.2 38.1 6.6 40.4 8.9 39.9 C16 38 23 36 28.6 34.4 Z" fill="#e8e0cf" stroke="#cdbf9f" stroke-width="0.7"/><path d="M35.4 27 C42 29 50 33 55.7 36.8 C57.8 38.1 57.4 40.4 55.1 39.9 C48 38 41 36 35.4 34.4 Z" fill="#e8e0cf" stroke="#cdbf9f" stroke-width="0.7"/><path d="M29.2 48.5 C26 50 22 52 20.4 53.6 C19.7 54.2 20.1 55.2 21 54.9 C24 54 27.4 52.6 29.6 51.6 Z" fill="#e8e0cf" stroke="#cdbf9f" stroke-width="0.7"/><path d="M34.8 48.5 C38 50 42 52 43.6 53.6 C44.3 54.2 43.9 55.2 43 54.9 C40 54 36.6 52.6 34.4 51.6 Z" fill="#e8e0cf" stroke="#cdbf9f" stroke-width="0.7"/><ellipse cx="17.5" cy="35.5" rx="2.2" ry="3" fill="#4ab4d6" stroke="#cdbf9f" stroke-width="0.5"/><ellipse cx="17.5" cy="33.4" rx="1.4" ry="1.1" fill="#2a3050" opacity="0.55"/><ellipse cx="46.5" cy="35.5" rx="2.2" ry="3" fill="#4ab4d6" stroke="#cdbf9f" stroke-width="0.5"/><ellipse cx="46.5" cy="33.4" rx="1.4" ry="1.1" fill="#2a3050" opacity="0.55"/><path d="M32 6.5 C34.2 6.5 35.5 9.5 35.9 13.5 C36.5 20 36.9 28 36.4 38 C36.0 46 34.4 53 32 56 C29.6 53 28.0 46 27.6 38 C27.1 28 27.5 20 28.1 13.5 C28.5 9.5 29.8 6.5 32 6.5 Z" fill="#f4eede" stroke="#cdbf9f" stroke-width="0.9"/><path d="M29.6 12 C28.8 20 28.6 30 29 42" fill="none" stroke="#ffffff" stroke-width="1.3" stroke-linecap="round" opacity="0.25"/><path d="M28.9 13.5 C30 11 34 11 35.1 13.5 C35.6 16.2 34 18.4 32 18.4 C30 18.4 28.4 16.2 28.9 13.5 Z" fill="#2a3050"/><ellipse cx="30.6" cy="14.2" rx="1.1" ry="1.5" fill="#bfe9ff" opacity="0.5"/><circle cx="32" cy="26" r="1.0" fill="#2a3050" opacity="0.45"/><circle cx="32" cy="30" r="1.0" fill="#2a3050" opacity="0.45"/><circle cx="32" cy="34" r="1.0" fill="#2a3050" opacity="0.45"/>
  </symbol>
  <symbol id="plane-patience" viewBox="0 0 64 64">
    <circle cx="32" cy="32" r="29" fill="none" stroke="#f2a93b" stroke-width="2.2" opacity="0.30"/><path d="M32 3 A29 29 0 1 1 8.5 46" fill="none" stroke="#e0584f" stroke-width="2.6" stroke-linecap="round" opacity="0.95"/><ellipse cx="32" cy="53.5" rx="16" ry="4.2" fill="#000" opacity="0.16"/><path d="M28.6 27 C22 29 14 33 8.3 36.8 C6.2 38.1 6.6 40.4 8.9 39.9 C16 38 23 36 28.6 34.4 Z" fill="#e8e0cf" stroke="#cdbf9f" stroke-width="0.7"/><path d="M35.4 27 C42 29 50 33 55.7 36.8 C57.8 38.1 57.4 40.4 55.1 39.9 C48 38 41 36 35.4 34.4 Z" fill="#e8e0cf" stroke="#cdbf9f" stroke-width="0.7"/><path d="M29.2 48.5 C26 50 22 52 20.4 53.6 C19.7 54.2 20.1 55.2 21 54.9 C24 54 27.4 52.6 29.6 51.6 Z" fill="#e8e0cf" stroke="#cdbf9f" stroke-width="0.7"/><path d="M34.8 48.5 C38 50 42 52 43.6 53.6 C44.3 54.2 43.9 55.2 43 54.9 C40 54 36.6 52.6 34.4 51.6 Z" fill="#e8e0cf" stroke="#cdbf9f" stroke-width="0.7"/><ellipse cx="17.5" cy="35.5" rx="2.2" ry="3" fill="#4ab4d6" stroke="#cdbf9f" stroke-width="0.5"/><ellipse cx="17.5" cy="33.4" rx="1.4" ry="1.1" fill="#2a3050" opacity="0.55"/><ellipse cx="46.5" cy="35.5" rx="2.2" ry="3" fill="#4ab4d6" stroke="#cdbf9f" stroke-width="0.5"/><ellipse cx="46.5" cy="33.4" rx="1.4" ry="1.1" fill="#2a3050" opacity="0.55"/><path d="M32 6.5 C34.2 6.5 35.5 9.5 35.9 13.5 C36.5 20 36.9 28 36.4 38 C36.0 46 34.4 53 32 56 C29.6 53 28.0 46 27.6 38 C27.1 28 27.5 20 28.1 13.5 C28.5 9.5 29.8 6.5 32 6.5 Z" fill="#f4eede" stroke="#cdbf9f" stroke-width="0.9"/><path d="M29.6 12 C28.8 20 28.6 30 29 42" fill="none" stroke="#ffffff" stroke-width="1.3" stroke-linecap="round" opacity="0.25"/><path d="M28.9 13.5 C30 11 34 11 35.1 13.5 C35.6 16.2 34 18.4 32 18.4 C30 18.4 28.4 16.2 28.9 13.5 Z" fill="#2a3050"/><ellipse cx="30.6" cy="14.2" rx="1.1" ry="1.5" fill="#bfe9ff" opacity="0.5"/><circle cx="32" cy="26" r="1.0" fill="#2a3050" opacity="0.45"/><circle cx="32" cy="30" r="1.0" fill="#2a3050" opacity="0.45"/><circle cx="32" cy="34" r="1.0" fill="#2a3050" opacity="0.45"/>
  </symbol>
  <symbol id="plane-emergency" viewBox="0 0 64 64">
    <circle cx="32" cy="32" r="30" fill="none" stroke="#e0584f" stroke-width="2.4" opacity="0.9"/><circle cx="32" cy="32" r="30" fill="none" stroke="#e0584f" stroke-width="8" opacity="0.16"/><ellipse cx="32" cy="53.5" rx="16" ry="4.2" fill="#000" opacity="0.16"/><path d="M28.6 27 C22 29 14 33 8.3 36.8 C6.2 38.1 6.6 40.4 8.9 39.9 C16 38 23 36 28.6 34.4 Z" fill="#e8e0cf" stroke="#cdbf9f" stroke-width="0.7"/><path d="M35.4 27 C42 29 50 33 55.7 36.8 C57.8 38.1 57.4 40.4 55.1 39.9 C48 38 41 36 35.4 34.4 Z" fill="#e8e0cf" stroke="#cdbf9f" stroke-width="0.7"/><path d="M29.2 48.5 C26 50 22 52 20.4 53.6 C19.7 54.2 20.1 55.2 21 54.9 C24 54 27.4 52.6 29.6 51.6 Z" fill="#e8e0cf" stroke="#cdbf9f" stroke-width="0.7"/><path d="M34.8 48.5 C38 50 42 52 43.6 53.6 C44.3 54.2 43.9 55.2 43 54.9 C40 54 36.6 52.6 34.4 51.6 Z" fill="#e8e0cf" stroke="#cdbf9f" stroke-width="0.7"/><ellipse cx="17.5" cy="35.5" rx="2.2" ry="3" fill="#4ab4d6" stroke="#cdbf9f" stroke-width="0.5"/><ellipse cx="17.5" cy="33.4" rx="1.4" ry="1.1" fill="#2a3050" opacity="0.55"/><ellipse cx="46.5" cy="35.5" rx="2.2" ry="3" fill="#4ab4d6" stroke="#cdbf9f" stroke-width="0.5"/><ellipse cx="46.5" cy="33.4" rx="1.4" ry="1.1" fill="#2a3050" opacity="0.55"/><path d="M32 6.5 C34.2 6.5 35.5 9.5 35.9 13.5 C36.5 20 36.9 28 36.4 38 C36.0 46 34.4 53 32 56 C29.6 53 28.0 46 27.6 38 C27.1 28 27.5 20 28.1 13.5 C28.5 9.5 29.8 6.5 32 6.5 Z" fill="#f4eede" stroke="#cdbf9f" stroke-width="0.9"/><path d="M29.6 12 C28.8 20 28.6 30 29 42" fill="none" stroke="#ffffff" stroke-width="1.3" stroke-linecap="round" opacity="0.25"/><path d="M28.9 13.5 C30 11 34 11 35.1 13.5 C35.6 16.2 34 18.4 32 18.4 C30 18.4 28.4 16.2 28.9 13.5 Z" fill="#2a3050"/><ellipse cx="30.6" cy="14.2" rx="1.1" ry="1.5" fill="#bfe9ff" opacity="0.5"/><circle cx="32" cy="26" r="1.0" fill="#2a3050" opacity="0.45"/><circle cx="32" cy="30" r="1.0" fill="#2a3050" opacity="0.45"/><circle cx="32" cy="34" r="1.0" fill="#2a3050" opacity="0.45"/><circle cx="32" cy="8.6" r="1.5" fill="#e0584f"/>
  </symbol>
  <symbol id="plane-medevac" viewBox="0 0 64 64">
    <ellipse cx="32" cy="53.5" rx="16" ry="4.2" fill="#000" opacity="0.16"/><path d="M28.6 27 C22 29 14 33 8.3 36.8 C6.2 38.1 6.6 40.4 8.9 39.9 C16 38 23 36 28.6 34.4 Z" fill="#e8e0cf" stroke="#cdbf9f" stroke-width="0.7"/><path d="M35.4 27 C42 29 50 33 55.7 36.8 C57.8 38.1 57.4 40.4 55.1 39.9 C48 38 41 36 35.4 34.4 Z" fill="#e8e0cf" stroke="#cdbf9f" stroke-width="0.7"/><path d="M29.2 48.5 C26 50 22 52 20.4 53.6 C19.7 54.2 20.1 55.2 21 54.9 C24 54 27.4 52.6 29.6 51.6 Z" fill="#e8e0cf" stroke="#cdbf9f" stroke-width="0.7"/><path d="M34.8 48.5 C38 50 42 52 43.6 53.6 C44.3 54.2 43.9 55.2 43 54.9 C40 54 36.6 52.6 34.4 51.6 Z" fill="#e8e0cf" stroke="#cdbf9f" stroke-width="0.7"/><ellipse cx="17.5" cy="35.5" rx="2.2" ry="3" fill="#4ab4d6" stroke="#cdbf9f" stroke-width="0.5"/><ellipse cx="17.5" cy="33.4" rx="1.4" ry="1.1" fill="#2a3050" opacity="0.55"/><ellipse cx="46.5" cy="35.5" rx="2.2" ry="3" fill="#4ab4d6" stroke="#cdbf9f" stroke-width="0.5"/><ellipse cx="46.5" cy="33.4" rx="1.4" ry="1.1" fill="#2a3050" opacity="0.55"/><path d="M32 6.5 C34.2 6.5 35.5 9.5 35.9 13.5 C36.5 20 36.9 28 36.4 38 C36.0 46 34.4 53 32 56 C29.6 53 28.0 46 27.6 38 C27.1 28 27.5 20 28.1 13.5 C28.5 9.5 29.8 6.5 32 6.5 Z" fill="#f4eede" stroke="#cdbf9f" stroke-width="0.9"/><path d="M29.6 12 C28.8 20 28.6 30 29 42" fill="none" stroke="#ffffff" stroke-width="1.3" stroke-linecap="round" opacity="0.25"/><path d="M28.9 13.5 C30 11 34 11 35.1 13.5 C35.6 16.2 34 18.4 32 18.4 C30 18.4 28.4 16.2 28.9 13.5 Z" fill="#2a3050"/><ellipse cx="30.6" cy="14.2" rx="1.1" ry="1.5" fill="#bfe9ff" opacity="0.5"/><circle cx="32" cy="26" r="1.0" fill="#2a3050" opacity="0.45"/><circle cx="32" cy="30" r="1.0" fill="#2a3050" opacity="0.45"/><circle cx="32" cy="34" r="1.0" fill="#2a3050" opacity="0.45"/><circle cx="32" cy="33" r="5.6" fill="#ffffff" stroke="#cdbf9f" stroke-width="0.6"/><rect x="30.8" y="30" width="2.4" height="6" rx="0.6" fill="#e0584f"/><rect x="29" y="31.8" width="6" height="2.4" rx="0.6" fill="#e0584f"/><circle cx="32" cy="8.6" r="1.5" fill="#e0584f"/>
  </symbol>
  <symbol id="svc-repair" viewBox="0 0 24 24">
    <g fill="none" stroke="#f2a93b" stroke-width="2" stroke-linecap="round" stroke-linejoin="round"><path d="M14.7 6.3a1 1 0 0 0 0 1.4l1.6 1.6a1 1 0 0 0 1.4 0l3.77-3.77a6 6 0 0 1-7.94 7.94l-6.91 6.91a2.12 2.12 0 0 1-3-3l6.91-6.91a6 6 0 0 1 7.94-7.94l-3.76 3.76z"/></g>
  </symbol>
  <symbol id="svc-fuel" viewBox="0 0 24 24">
    <g fill="none" stroke="#4ecdc4" stroke-width="2" stroke-linecap="round" stroke-linejoin="round"><path d="M3 22h12"/><path d="M4 9h10"/><path d="M14 22V4a2 2 0 0 0-2-2H6a2 2 0 0 0-2 2v18"/><path d="M14 13h2a2 2 0 0 1 2 2v2a2 2 0 0 0 4 0V9.8a2 2 0 0 0-.6-1.4L18 5"/></g>
  </symbol>
  <symbol id="svc-board" viewBox="0 0 24 24">
    <g fill="none" stroke="#ef798a" stroke-width="2" stroke-linecap="round" stroke-linejoin="round"><path d="M16 21v-2a4 4 0 0 0-4-4H6a4 4 0 0 0-4 4v2"/><path d="M22 21v-2a4 4 0 0 0-3-3.87"/><path d="M16 3.13a4 4 0 0 1 0 7.75"/><circle cx="9" cy="7" r="4"/></g>
  </symbol>
  <symbol id="svc-depart" viewBox="0 0 24 24">
    <g fill="none" stroke="#f4cf5e" stroke-width="2" stroke-linecap="round" stroke-linejoin="round"><path d="M2 22h20"/><path d="M6.4 17.4 4 17l-2-4 1.1-.55a2 2 0 0 1 1.8 0l.17.1a2 2 0 0 0 1.8 0L8 12 5 6l.9-.45a2 2 0 0 1 2.09.2l4.02 3 4.99-1.5a2.5 2.5 0 0 1 1.5 4.77z"/></g>
  </symbol>
</defs>
</svg>
