<svg xmlns="http://www.w3.org/2000/svg" width="972" height="576" viewBox="0 0 972 576"><rect width="972" height="576" fill="#0d0b14"/><text x="8.0" y="28.0" font-family="DejaVu Sans, sans-serif" font-size="20" font-weight="700" letter-spacing="0.5" fill="#f4eede" text-anchor="start" opacity="1.0">02 · Level select — «Flight map»</text><text x="8.0" y="50.0" font-family="DejaVu Sans, sans-serif" font-size="13" font-weight="400" letter-spacing="0" fill="#a8aab5" text-anchor="start" opacity="1.0">On-theme: levels strung along a dashed route line (a flight plan). Stars under each stop; padlock = locked.</text><rect x="0.0" y="64.0" width="972.0" height="512.0" rx="30.0" fill="#000" opacity="1.0"/><rect x="4.0" y="68.0" width="964.0" height="504.0" rx="26.0" fill="#3a3550" opacity="1.0"/><rect x="23.0" y="87.0" width="926.0" height="466.0" rx="18.0" fill="#0a0810" opacity="1.0"/><clipPath id="scr"><rect x="26" y="90" width="920" height="460" rx="14"/></clipPath><g clip-path="url(#scr)"><g transform="translate(26,90)"><defs><linearGradient id="mg" x1="0" y1="0" x2="0" y2="1"><stop offset="0" stop-color="#211d33"/><stop offset="1" stop-color="#16131f"/></linearGradient></defs><rect x="0.0" y="0.0" width="920.0" height="460.0" rx="0.0" fill="url(#mg)" opacity="1.0"/><circle cx="40.0" cy="426.0" r="2.4" fill="#f2a93b" opacity="0.5"/><circle cx="66.0" cy="426.0" r="2.4" fill="#f2a93b" opacity="0.5"/><circle cx="92.0" cy="426.0" r="2.4" fill="#f2a93b" opacity="0.5"/><circle cx="118.0" cy="426.0" r="2.4" fill="#f2a93b" opacity="0.5"/><circle cx="144.0" cy="426.0" r="2.4" fill="#f2a93b" opacity="0.5"/><circle cx="170.0" cy="426.0" r="2.4" fill="#f2a93b" opacity="0.5"/><circle cx="196.0" cy="426.0" r="2.4" fill="#f2a93b" opacity="0.5"/><text x="40.0" y="54.0" font-family="DejaVu Sans, sans-serif" font-size="26" font-weight="800" letter-spacing="0" fill="#f4eede" text-anchor="start" opacity="1.0">FLIGHT MAP</text><text x="40.0" y="78.0" font-family="DejaVu Sans, sans-serif" font-size="13" font-weight="400" letter-spacing="0" fill="#a8aab5" text-anchor="start" opacity="1.0">each level is a stop on the route</text><rect x="770.0" y="30.0" width="120.0" height="40.0" rx="20.0" fill="#2a2540" opacity="1.0" stroke="#3a3354" stroke-width="1.5" stroke-opacity="0.5"/><polygon points="792.0,39.0 794.9,46.0 802.5,46.6 796.7,51.5 798.5,58.9 792.0,55.0 785.5,58.9 787.3,51.5 781.5,46.6 789.1,46.0" fill="#f4cf5e"/><text x="812.0" y="56.0" font-family="DejaVu Sans, sans-serif" font-size="16" font-weight="700" letter-spacing="0" fill="#f4cf5e" text-anchor="start" opacity="1.0">38 / 60</text><path d="M110 300 Q170.0 180 230 210 Q295.0 180 360 300 Q425.0 170 490 200 Q555.0 170 620 290 Q685.0 170 750 200 Q805.0 170 860 300" fill="none" stroke="#f2a93b" stroke-width="4" stroke-dasharray="2 10" stroke-linecap="round" opacity="0.8"/><circle cx="110.0" cy="300.0" r="30.0" fill="#2a2540" opacity="1.0" stroke="#3a3354" stroke-width="2.4" stroke-opacity="0.5"/><text x="110.0" y="306.0" font-family="DejaVu Sans, sans-serif" font-size="20" font-weight="700" letter-spacing="0" fill="#f4eede" text-anchor="middle" opacity="1.0">1</text><polygon points="94.0,337.0 95.9,341.5 100.7,341.8 97.0,345.0 98.1,349.7 94.0,347.1 89.9,349.7 91.0,345.0 87.3,341.8 92.1,341.5" fill="#f4cf5e"/><polygon points="110.0,337.0 111.9,341.5 116.7,341.8 113.0,345.0 114.1,349.7 110.0,347.1 105.9,349.7 107.0,345.0 103.3,341.8 108.1,341.5" fill="#f4cf5e"/><polygon points="126.0,337.0 127.9,341.5 132.7,341.8 129.0,345.0 130.1,349.7 126.0,347.1 121.9,349.7 123.0,345.0 119.3,341.8 124.1,341.5" fill="#f4cf5e"/><circle cx="230.0" cy="210.0" r="30.0" fill="#2a2540" opacity="1.0" stroke="#3a3354" stroke-width="2.4" stroke-opacity="0.5"/><text x="230.0" y="216.0" font-family="DejaVu Sans, sans-serif" font-size="20" font-weight="700" letter-spacing="0" fill="#f4eede" text-anchor="middle" opacity="1.0">2</text><polygon points="214.0,247.0 215.9,251.5 220.7,251.8 217.0,255.0 218.1,259.7 214.0,257.1 209.9,259.7 211.0,255.0 207.3,251.8 212.1,251.5" fill="#f4cf5e"/><polygon points="230.0,247.0 231.9,251.5 236.7,251.8 233.0,255.0 234.1,259.7 230.0,257.1 225.9,259.7 227.0,255.0 223.3,251.8 228.1,251.5" fill="#f4cf5e"/><polygon points="246.0,247.0 247.9,251.5 252.7,251.8 249.0,255.0 250.1,259.7 246.0,257.1 241.9,259.7 243.0,255.0 239.3,251.8 244.1,251.5" fill="#3a3550"/><circle cx="360.0" cy="300.0" r="30.0" fill="#2a2540" opacity="1.0" stroke="#3a3354" stroke-width="2.4" stroke-opacity="0.5"/><text x="360.0" y="306.0" font-family="DejaVu Sans, sans-serif" font-size="20" font-weight="700" letter-spacing="0" fill="#f4eede" text-anchor="middle" opacity="1.0">3</text><polygon points="344.0,337.0 345.9,341.5 350.7,341.8 347.0,345.0 348.1,349.7 344.0,347.1 339.9,349.7 341.0,345.0 337.3,341.8 342.1,341.5" fill="#f4cf5e"/><polygon points="360.0,337.0 361.9,341.5 366.7,341.8 363.0,345.0 364.1,349.7 360.0,347.1 355.9,349.7 357.0,345.0 353.3,341.8 358.1,341.5" fill="#f4cf5e"/><polygon points="376.0,337.0 377.9,341.5 382.7,341.8 379.0,345.0 380.1,349.7 376.0,347.1 371.9,349.7 373.0,345.0 369.3,341.8 374.1,341.5" fill="#f4cf5e"/><circle cx="490.0" cy="200.0" r="30.0" fill="#2a2540" opacity="1.0" stroke="#3a3354" stroke-width="2.4" stroke-opacity="0.5"/><text x="490.0" y="206.0" font-family="DejaVu Sans, sans-serif" font-size="20" font-weight="700" letter-spacing="0" fill="#f4eede" text-anchor="middle" opacity="1.0">4</text><polygon points="474.0,237.0 475.9,241.5 480.7,241.8 477.0,245.0 478.1,249.7 474.0,247.2 469.9,249.7 471.0,245.0 467.3,241.8 472.1,241.5" fill="#f4cf5e"/><polygon points="490.0,237.0 491.9,241.5 496.7,241.8 493.0,245.0 494.1,249.7 490.0,247.2 485.9,249.7 487.0,245.0 483.3,241.8 488.1,241.5" fill="#3a3550"/><polygon points="506.0,237.0 507.9,241.5 512.7,241.8 509.0,245.0 510.1,249.7 506.0,247.2 501.9,249.7 503.0,245.0 499.3,241.8 504.1,241.5" fill="#3a3550"/><circle cx="620.0" cy="290.0" r="30.0" fill="#2a2540" opacity="1.0" stroke="#5dca7a" stroke-width="2.4" stroke-opacity="0.9"/><text x="620.0" y="296.0" font-family="DejaVu Sans, sans-serif" font-size="20" font-weight="700" letter-spacing="0" fill="#f4eede" text-anchor="middle" opacity="1.0">5</text><polygon points="604.0,327.0 605.9,331.5 610.7,331.8 607.0,335.0 608.1,339.7 604.0,337.1 599.9,339.7 601.0,335.0 597.3,331.8 602.1,331.5" fill="#3a3550"/><polygon points="620.0,327.0 621.9,331.5 626.7,331.8 623.0,335.0 624.1,339.7 620.0,337.1 615.9,339.7 617.0,335.0 613.3,331.8 618.1,331.5" fill="#3a3550"/><polygon points="636.0,327.0 637.9,331.5 642.7,331.8 639.0,335.0 640.1,339.7 636.0,337.1 631.9,339.7 633.0,335.0 629.3,331.8 634.1,331.5" fill="#3a3550"/><circle cx="750.0" cy="200.0" r="30.0" fill="#1c1830" opacity="1.0" stroke="#8a8c99" stroke-width="2" stroke-opacity="0.6"/><g transform="translate(739,189)scale(0.9166666666666666)" fill="none" stroke="#8a8c99" stroke-width="2" stroke-linecap="round" stroke-linejoin="round"><path d="M5 11h14a1 1 0 0 1 1 1v8a1 1 0 0 1-1 1H5a1 1 0 0 1-1-1v-8a1 1 0 0 1 1-1z"/><path d="M8 11V7a4 4 0 0 1 8 0v4"/></g><circle cx="860.0" cy="300.0" r="30.0" fill="#1c1830" opacity="1.0" stroke="#8a8c99" stroke-width="2" stroke-opacity="0.6"/><g transform="translate(849,289)scale(0.9166666666666666)" fill="none" stroke="#8a8c99" stroke-width="2" stroke-linecap="round" stroke-linejoin="round"><path d="M5 11h14a1 1 0 0 1 1 1v8a1 1 0 0 1-1 1H5a1 1 0 0 1-1-1v-8a1 1 0 0 1 1-1z"/><path d="M8 11V7a4 4 0 0 1 8 0v4"/></g><rect x="40.0" y="402.0" width="150.0" height="40.0" rx="20.0" fill="#2a2540" opacity="1.0" stroke="#3a3354" stroke-width="1.4" stroke-opacity="1.0"/><text x="115.0" y="427.2" font-family="DejaVu Sans, sans-serif" font-size="15" font-weight="600" letter-spacing="0" fill="#f4eede" text-anchor="middle" opacity="1.0">←  Back</text><text x="560.0" y="420.0" font-family="DejaVu Sans, sans-serif" font-size="12" font-weight="700" letter-spacing="0.3" fill="#4ab4d6" text-anchor="start" opacity="1.0">locked nodes = padlock · 1★ unlocks next ▶</text></g></g></svg>