<svg xmlns="http://www.w3.org/2000/svg" width="972" height="576" viewBox="0 0 972 576"><rect width="972" height="576" fill="#0d0b14"/><text x="8.0" y="28.0" font-family="DejaVu Sans, sans-serif" font-size="20" font-weight="700" letter-spacing="0.5" fill="#f4eede" text-anchor="start" opacity="1.0">07 · End of shift</text><text x="8.0" y="50.0" font-family="DejaVu Sans, sans-serif" font-size="13" font-weight="400" letter-spacing="0" fill="#a8aab5" text-anchor="start" opacity="1.0">Stars animate in, key stats as chips, three clear exits (Levels · Retry · Next). Next is the primary.</text><rect x="0.0" y="64.0" width="972.0" height="512.0" rx="30.0" fill="#000" opacity="1.0"/><rect x="4.0" y="68.0" width="964.0" height="504.0" rx="26.0" fill="#3a3550" opacity="1.0"/><rect x="23.0" y="87.0" width="926.0" height="466.0" rx="18.0" fill="#0a0810" opacity="1.0"/><clipPath id="scr"><rect x="26" y="90" width="920" height="460" rx="14"/></clipPath><g clip-path="url(#scr)"><g transform="translate(26,90)"><defs><linearGradient id="mg" x1="0" y1="0" x2="0" y2="1"><stop offset="0" stop-color="#211d33"/><stop offset="1" stop-color="#16131f"/></linearGradient></defs><rect x="0.0" y="0.0" width="920.0" height="460.0" rx="0.0" fill="url(#mg)" opacity="1.0"/><circle cx="40.0" cy="426.0" r="2.4" fill="#f2a93b" opacity="0.5"/><circle cx="66.0" cy="426.0" r="2.4" fill="#f2a93b" opacity="0.5"/><circle cx="92.0" cy="426.0" r="2.4" fill="#f2a93b" opacity="0.5"/><circle cx="118.0" cy="426.0" r="2.4" fill="#f2a93b" opacity="0.5"/><circle cx="144.0" cy="426.0" r="2.4" fill="#f2a93b" opacity="0.5"/><circle cx="170.0" cy="426.0" r="2.4" fill="#f2a93b" opacity="0.5"/><circle cx="196.0" cy="426.0" r="2.4" fill="#f2a93b" opacity="0.5"/><text x="460.0" y="70.0" font-family="DejaVu Sans, sans-serif" font-size="24" font-weight="800" letter-spacing=".5" fill="#f4eede" text-anchor="middle" opacity="1.0">SHIFT COMPLETE</text><polygon points="370.0,98.0 381.1,124.7 409.9,127.0 388.0,145.8 394.7,174.0 370.0,158.9 345.3,174.0 352.0,145.8 330.1,127.0 358.9,124.7" fill="#f4cf5e" stroke="#d8a93b" stroke-width="1.2"/><polygon points="460.0,72.0 473.8,105.1 509.5,107.9 482.3,131.2 490.6,166.1 460.0,147.4 429.4,166.1 437.7,131.2 410.5,107.9 446.2,105.1" fill="#f4cf5e" stroke="#d8a93b" stroke-width="1.2"/><polygon points="550.0,98.0 561.1,124.7 589.9,127.0 568.0,145.8 574.7,174.0 550.0,158.9 525.3,174.0 532.0,145.8 510.1,127.0 538.9,124.7" fill="#3a3550"/><rect x="99.0" y="230.0" width="170.0" height="70.0" rx="16.0" fill="#2a2540" opacity="1.0" stroke="#3a3354" stroke-width="1.5" stroke-opacity="0.4"/><text x="184.0" y="262.0" font-family="DejaVu Sans, sans-serif" font-size="22" font-weight="800" letter-spacing="0" fill="#f4eede" text-anchor="middle" opacity="1.0">24</text><text x="184.0" y="286.0" font-family="DejaVu Sans, sans-serif" font-size="12" font-weight="400" letter-spacing="0" fill="#a8aab5" text-anchor="middle" opacity="1.0">Planes</text><rect x="283.0" y="230.0" width="170.0" height="70.0" rx="16.0" fill="#2a2540" opacity="1.0" stroke="#3a3354" stroke-width="1.5" stroke-opacity="0.4"/><text x="368.0" y="262.0" font-family="DejaVu Sans, sans-serif" font-size="22" font-weight="800" letter-spacing="0" fill="#f4cf5e" text-anchor="middle" opacity="1.0">18 600</text><text x="368.0" y="286.0" font-family="DejaVu Sans, sans-serif" font-size="12" font-weight="400" letter-spacing="0" fill="#a8aab5" text-anchor="middle" opacity="1.0">Money</text><rect x="467.0" y="230.0" width="170.0" height="70.0" rx="16.0" fill="#2a2540" opacity="1.0" stroke="#3a3354" stroke-width="1.5" stroke-opacity="0.4"/><text x="552.0" y="262.0" font-family="DejaVu Sans, sans-serif" font-size="22" font-weight="800" letter-spacing="0" fill="#9a6fd4" text-anchor="middle" opacity="1.0">×2</text><text x="552.0" y="286.0" font-family="DejaVu Sans, sans-serif" font-size="12" font-weight="400" letter-spacing="0" fill="#a8aab5" text-anchor="middle" opacity="1.0">Best combo</text><rect x="651.0" y="230.0" width="170.0" height="70.0" rx="16.0" fill="#2a2540" opacity="1.0" stroke="#3a3354" stroke-width="1.5" stroke-opacity="0.4"/><text x="736.0" y="262.0" font-family="DejaVu Sans, sans-serif" font-size="22" font-weight="800" letter-spacing="0" fill="#f2a93b" text-anchor="middle" opacity="1.0">2</text><text x="736.0" y="286.0" font-family="DejaVu Sans, sans-serif" font-size="12" font-weight="400" letter-spacing="0" fill="#a8aab5" text-anchor="middle" opacity="1.0">Overdue</text><rect x="210.0" y="388.0" width="150.0" height="46.0" rx="23.0" fill="#2a2540" opacity="1.0" stroke="#3a3354" stroke-width="1.4" stroke-opacity="1.0"/><text x="285.0" y="416.2" font-family="DejaVu Sans, sans-serif" font-size="15" font-weight="600" letter-spacing="0" fill="#f4eede" text-anchor="middle" opacity="1.0">≡ Levels</text><rect x="370.0" y="388.0" width="150.0" height="46.0" rx="23.0" fill="#4ecdc4" opacity="1.0"/><text x="445.0" y="416.2" font-family="DejaVu Sans, sans-serif" font-size="15" font-weight="600" letter-spacing="0" fill="#0d2b2a" text-anchor="middle" opacity="1.0">↻ Retry</text><rect x="530.0" y="388.0" width="180.0" height="46.0" rx="23.0" fill="#5dca7a" opacity="1.0"/><text x="620.0" y="416.6" font-family="DejaVu Sans, sans-serif" font-size="16" font-weight="600" letter-spacing="0" fill="#10331c" text-anchor="middle" opacity="1.0">⏭ Next level</text></g></g></svg>