<svg xmlns="http://www.w3.org/2000/svg" width="972" height="576" viewBox="0 0 972 576"><rect width="972" height="576" fill="#0d0b14"/><text x="8.0" y="28.0" font-family="DejaVu Sans, sans-serif" font-size="20" font-weight="700" letter-spacing="0.5" fill="#f4eede" text-anchor="start" opacity="1.0">08 · Settings</text><text x="8.0" y="50.0" font-family="DejaVu Sans, sans-serif" font-size="13" font-weight="400" letter-spacing="0" fill="#a8aab5" text-anchor="start" opacity="1.0">Big toggle switches (sound·vibro·assist cheats), language pills, destructive Reset set apart in rose.</text><rect x="0.0" y="64.0" width="972.0" height="512.0" rx="30.0" fill="#000" opacity="1.0"/><rect x="4.0" y="68.0" width="964.0" height="504.0" rx="26.0" fill="#3a3550" opacity="1.0"/><rect x="23.0" y="87.0" width="926.0" height="466.0" rx="18.0" fill="#0a0810" opacity="1.0"/><clipPath id="scr"><rect x="26" y="90" width="920" height="460" rx="14"/></clipPath><g clip-path="url(#scr)"><g transform="translate(26,90)"><defs><linearGradient id="mg" x1="0" y1="0" x2="0" y2="1"><stop offset="0" stop-color="#211d33"/><stop offset="1" stop-color="#16131f"/></linearGradient></defs><rect x="0.0" y="0.0" width="920.0" height="460.0" rx="0.0" fill="url(#mg)" opacity="1.0"/><circle cx="40.0" cy="426.0" r="2.4" fill="#f2a93b" opacity="0.5"/><circle cx="66.0" cy="426.0" r="2.4" fill="#f2a93b" opacity="0.5"/><circle cx="92.0" cy="426.0" r="2.4" fill="#f2a93b" opacity="0.5"/><circle cx="118.0" cy="426.0" r="2.4" fill="#f2a93b" opacity="0.5"/><circle cx="144.0" cy="426.0" r="2.4" fill="#f2a93b" opacity="0.5"/><circle cx="170.0" cy="426.0" r="2.4" fill="#f2a93b" opacity="0.5"/><circle cx="196.0" cy="426.0" r="2.4" fill="#f2a93b" opacity="0.5"/><rect x="200.0" y="70.0" width="520.0" height="320.0" rx="24.0" fill="#2a2540" opacity="1.0" stroke="#3a3354" stroke-width="1.5" stroke-opacity="0.6"/><text x="460.0" y="114.0" font-family="DejaVu Sans, sans-serif" font-size="22" font-weight="800" letter-spacing="0" fill="#f4eede" text-anchor="middle" opacity="1.0">⚙  SETTINGS</text><text x="236.0" y="165.0" font-family="DejaVu Sans, sans-serif" font-size="15" font-weight="400" letter-spacing="0" fill="#f4eede" text-anchor="start" opacity="1.0">Sound</text><rect x="628.0" y="148.0" width="56.0" height="28.0" rx="14.0" fill="#5dca7a" opacity="1.0" stroke="#3a3354" stroke-width="1.5" stroke-opacity="0.5"/><circle cx="668.0" cy="162.0" r="11.0" fill="#f4eede" opacity="1.0"/><line x1="236.0" y1="182.0" x2="684.0" y2="182.0" stroke="#3a3354" stroke-width="1" opacity="0.3" stroke-linecap="round"/><text x="236.0" y="211.0" font-family="DejaVu Sans, sans-serif" font-size="15" font-weight="400" letter-spacing="0" fill="#f4eede" text-anchor="start" opacity="1.0">Vibration</text><rect x="628.0" y="194.0" width="56.0" height="28.0" rx="14.0" fill="#5dca7a" opacity="1.0" stroke="#3a3354" stroke-width="1.5" stroke-opacity="0.5"/><circle cx="668.0" cy="208.0" r="11.0" fill="#f4eede" opacity="1.0"/><line x1="236.0" y1="228.0" x2="684.0" y2="228.0" stroke="#3a3354" stroke-width="1" opacity="0.3" stroke-linecap="round"/><text x="236.0" y="257.0" font-family="DejaVu Sans, sans-serif" font-size="15" font-weight="400" letter-spacing="0" fill="#f4eede" text-anchor="start" opacity="1.0">Infinite lives</text><rect x="628.0" y="240.0" width="56.0" height="28.0" rx="14.0" fill="#2a2540" opacity="1.0" stroke="#3a3354" stroke-width="1.5" stroke-opacity="0.5"/><circle cx="644.0" cy="254.0" r="11.0" fill="#f4eede" opacity="1.0"/><line x1="236.0" y1="274.0" x2="684.0" y2="274.0" stroke="#3a3354" stroke-width="1" opacity="0.3" stroke-linecap="round"/><text x="236.0" y="303.0" font-family="DejaVu Sans, sans-serif" font-size="15" font-weight="400" letter-spacing="0" fill="#f4eede" text-anchor="start" opacity="1.0">Infinite money</text><rect x="628.0" y="286.0" width="56.0" height="28.0" rx="14.0" fill="#2a2540" opacity="1.0" stroke="#3a3354" stroke-width="1.5" stroke-opacity="0.5"/><circle cx="644.0" cy="300.0" r="11.0" fill="#f4eede" opacity="1.0"/><line x1="236.0" y1="320.0" x2="684.0" y2="320.0" stroke="#3a3354" stroke-width="1" opacity="0.3" stroke-linecap="round"/><text x="236.0" y="349.0" font-family="DejaVu Sans, sans-serif" font-size="15" font-weight="400" letter-spacing="0" fill="#f4eede" text-anchor="start" opacity="1.0">Language</text><rect x="570.0" y="330.0" width="46.0" height="30.0" rx="15.0" fill="#5dca7a" opacity="1.0"/><text x="593.0" y="349.6" font-family="DejaVu Sans, sans-serif" font-size="13" font-weight="600" letter-spacing="0" fill="#10331c" text-anchor="middle" opacity="1.0">RU</text><rect x="622.0" y="330.0" width="46.0" height="30.0" rx="15.0" fill="#2a2540" opacity="1.0" stroke="#3a3354" stroke-width="1.4" stroke-opacity="1.0"/><text x="645.0" y="349.6" font-family="DejaVu Sans, sans-serif" font-size="13" font-weight="600" letter-spacing="0" fill="#f4eede" text-anchor="middle" opacity="1.0">EN</text><rect x="236.0" y="332.0" width="180.0" height="42.0" rx="21.0" fill="#2a1f24" opacity="1.0" stroke="#ef798a" stroke-width="1.4" stroke-opacity="1.0"/><text x="326.0" y="357.9" font-family="DejaVu Sans, sans-serif" font-size="14" font-weight="600" letter-spacing="0" fill="#ef798a" text-anchor="middle" opacity="1.0">⟲ Reset progress</text><rect x="544.0" y="332.0" width="140.0" height="42.0" rx="21.0" fill="#5dca7a" opacity="1.0"/><text x="614.0" y="358.2" font-family="DejaVu Sans, sans-serif" font-size="15" font-weight="600" letter-spacing="0" fill="#10331c" text-anchor="middle" opacity="1.0">← Back</text></g></g></svg>