<svg xmlns="http://www.w3.org/2000/svg" width="972" height="576" viewBox="0 0 972 576"><rect width="972" height="576" fill="#0d0b14"/><text x="8.0" y="28.0" font-family="DejaVu Sans, sans-serif" font-size="20" font-weight="700" letter-spacing="0.5" fill="#f4eede" text-anchor="start" opacity="1.0">09 · Medals / Achievements</text><text x="8.0" y="50.0" font-family="DejaVu Sans, sans-serif" font-size="13" font-weight="400" letter-spacing="0" fill="#a8aab5" text-anchor="start" opacity="1.0">Grid of warm tiles; earned = gold medal, locked = padlock. Scrollable; tap for detail.</text><rect x="0.0" y="64.0" width="972.0" height="512.0" rx="30.0" fill="#000" opacity="1.0"/><rect x="4.0" y="68.0" width="964.0" height="504.0" rx="26.0" fill="#3a3550" opacity="1.0"/><rect x="23.0" y="87.0" width="926.0" height="466.0" rx="18.0" fill="#0a0810" opacity="1.0"/><clipPath id="scr"><rect x="26" y="90" width="920" height="460" rx="14"/></clipPath><g clip-path="url(#scr)"><g transform="translate(26,90)"><defs><linearGradient id="mg" x1="0" y1="0" x2="0" y2="1"><stop offset="0" stop-color="#211d33"/><stop offset="1" stop-color="#16131f"/></linearGradient></defs><rect x="0.0" y="0.0" width="920.0" height="460.0" rx="0.0" fill="url(#mg)" opacity="1.0"/><circle cx="40.0" cy="426.0" r="2.4" fill="#f2a93b" opacity="0.5"/><circle cx="66.0" cy="426.0" r="2.4" fill="#f2a93b" opacity="0.5"/><circle cx="92.0" cy="426.0" r="2.4" fill="#f2a93b" opacity="0.5"/><circle cx="118.0" cy="426.0" r="2.4" fill="#f2a93b" opacity="0.5"/><circle cx="144.0" cy="426.0" r="2.4" fill="#f2a93b" opacity="0.5"/><circle cx="170.0" cy="426.0" r="2.4" fill="#f2a93b" opacity="0.5"/><circle cx="196.0" cy="426.0" r="2.4" fill="#f2a93b" opacity="0.5"/><text x="40.0" y="54.0" font-family="DejaVu Sans, sans-serif" font-size="26" font-weight="800" letter-spacing="0" fill="#f4eede" text-anchor="start" opacity="1.0">MEDALS</text><text x="40.0" y="78.0" font-family="DejaVu Sans, sans-serif" font-size="13" font-weight="400" letter-spacing="0" fill="#a8aab5" text-anchor="start" opacity="1.0">18 / 46 earned</text><rect x="40.0" y="96.0" width="120.0" height="104.0" rx="16.0" fill="#2a2540" opacity="1.0" stroke="#f4cf5e" stroke-width="1.6" stroke-opacity="0.6"/><circle cx="100.0" cy="134.0" r="24.0" fill="#241f33" opacity="1.0" stroke="#f4cf5e" stroke-width="2" stroke-opacity="1.0"/><g transform="translate(88.0,120)scale(1.0)" fill="none" stroke="#f4cf5e" stroke-width="2" stroke-linecap="round" stroke-linejoin="round"><path d="M8 15a6 6 0 1 0 8 0"/><path d="M9 9 7 2h10l-2 7"/></g><text x="100.0" y="174.0" font-family="DejaVu Sans, sans-serif" font-size="11" font-weight="600" letter-spacing="0" fill="#f4eede" text-anchor="middle" opacity="1.0">Medal</text><text x="100.0" y="190.0" font-family="DejaVu Sans, sans-serif" font-size="9" font-weight="400" letter-spacing="0" fill="#a8aab5" text-anchor="middle" opacity="1.0">earned</text><rect x="168.0" y="96.0" width="120.0" height="104.0" rx="16.0" fill="#2a2540" opacity="1.0" stroke="#f4cf5e" stroke-width="1.6" stroke-opacity="0.6"/><circle cx="228.0" cy="134.0" r="24.0" fill="#241f33" opacity="1.0" stroke="#f4cf5e" stroke-width="2" stroke-opacity="1.0"/><g transform="translate(216.0,120)scale(1.0)" fill="none" stroke="#f4cf5e" stroke-width="2" stroke-linecap="round" stroke-linejoin="round"><path d="M8 15a6 6 0 1 0 8 0"/><path d="M9 9 7 2h10l-2 7"/></g><text x="228.0" y="174.0" font-family="DejaVu Sans, sans-serif" font-size="11" font-weight="600" letter-spacing="0" fill="#f4eede" text-anchor="middle" opacity="1.0">Medal</text><text x="228.0" y="190.0" font-family="DejaVu Sans, sans-serif" font-size="9" font-weight="400" letter-spacing="0" fill="#a8aab5" text-anchor="middle" opacity="1.0">earned</text><rect x="296.0" y="96.0" width="120.0" height="104.0" rx="16.0" fill="#1c1830" opacity="1.0" stroke="#3a3354" stroke-width="1.6" stroke-opacity="0.3"/><circle cx="356.0" cy="134.0" r="24.0" fill="#241f33" opacity="1.0" stroke="#8a8c99" stroke-width="2" stroke-opacity="1.0"/><g transform="translate(345.0,123)scale(0.9166666666666666)" fill="none" stroke="#8a8c99" stroke-width="2" stroke-linecap="round" stroke-linejoin="round"><path d="M5 11h14a1 1 0 0 1 1 1v8a1 1 0 0 1-1 1H5a1 1 0 0 1-1-1v-8a1 1 0 0 1 1-1z"/><path d="M8 11V7a4 4 0 0 1 8 0v4"/></g><text x="356.0" y="174.0" font-family="DejaVu Sans, sans-serif" font-size="11" font-weight="600" letter-spacing="0" fill="#8a8c99" text-anchor="middle" opacity="1.0">Medal</text><text x="356.0" y="190.0" font-family="DejaVu Sans, sans-serif" font-size="9" font-weight="400" letter-spacing="0" fill="#a8aab5" text-anchor="middle" opacity="1.0">locked</text><rect x="424.0" y="96.0" width="120.0" height="104.0" rx="16.0" fill="#2a2540" opacity="1.0" stroke="#f4cf5e" stroke-width="1.6" stroke-opacity="0.6"/><circle cx="484.0" cy="134.0" r="24.0" fill="#241f33" opacity="1.0" stroke="#f4cf5e" stroke-width="2" stroke-opacity="1.0"/><g transform="translate(472.0,120)scale(1.0)" fill="none" stroke="#f4cf5e" stroke-width="2" stroke-linecap="round" stroke-linejoin="round"><path d="M8 15a6 6 0 1 0 8 0"/><path d="M9 9 7 2h10l-2 7"/></g><text x="484.0" y="174.0" font-family="DejaVu Sans, sans-serif" font-size="11" font-weight="600" letter-spacing="0" fill="#f4eede" text-anchor="middle" opacity="1.0">Medal</text><text x="484.0" y="190.0" font-family="DejaVu Sans, sans-serif" font-size="9" font-weight="400" letter-spacing="0" fill="#a8aab5" text-anchor="middle" opacity="1.0">earned</text><rect x="552.0" y="96.0" width="120.0" height="104.0" rx="16.0" fill="#2a2540" opacity="1.0" stroke="#f4cf5e" stroke-width="1.6" stroke-opacity="0.6"/><circle cx="612.0" cy="134.0" r="24.0" fill="#241f33" opacity="1.0" stroke="#f4cf5e" stroke-width="2" stroke-opacity="1.0"/><g transform="translate(600.0,120)scale(1.0)" fill="none" stroke="#f4cf5e" stroke-width="2" stroke-linecap="round" stroke-linejoin="round"><path d="M8 15a6 6 0 1 0 8 0"/><path d="M9 9 7 2h10l-2 7"/></g><text x="612.0" y="174.0" font-family="DejaVu Sans, sans-serif" font-size="11" font-weight="600" letter-spacing="0" fill="#f4eede" text-anchor="middle" opacity="1.0">Medal</text><text x="612.0" y="190.0" font-family="DejaVu Sans, sans-serif" font-size="9" font-weight="400" letter-spacing="0" fill="#a8aab5" text-anchor="middle" opacity="1.0">earned</text><rect x="680.0" y="96.0" width="120.0" height="104.0" rx="16.0" fill="#1c1830" opacity="1.0" stroke="#3a3354" stroke-width="1.6" stroke-opacity="0.3"/><circle cx="740.0" cy="134.0" r="24.0" fill="#241f33" opacity="1.0" stroke="#8a8c99" stroke-width="2" stroke-opacity="1.0"/><g transform="translate(729.0,123)scale(0.9166666666666666)" fill="none" stroke="#8a8c99" stroke-width="2" stroke-linecap="round" stroke-linejoin="round"><path d="M5 11h14a1 1 0 0 1 1 1v8a1 1 0 0 1-1 1H5a1 1 0 0 1-1-1v-8a1 1 0 0 1 1-1z"/><path d="M8 11V7a4 4 0 0 1 8 0v4"/></g><text x="740.0" y="174.0" font-family="DejaVu Sans, sans-serif" font-size="11" font-weight="600" letter-spacing="0" fill="#8a8c99" text-anchor="middle" opacity="1.0">Medal</text><text x="740.0" y="190.0" font-family="DejaVu Sans, sans-serif" font-size="9" font-weight="400" letter-spacing="0" fill="#a8aab5" text-anchor="middle" opacity="1.0">locked</text><rect x="40.0" y="214.0" width="120.0" height="104.0" rx="16.0" fill="#2a2540" opacity="1.0" stroke="#f4cf5e" stroke-width="1.6" stroke-opacity="0.6"/><circle cx="100.0" cy="252.0" r="24.0" fill="#241f33" opacity="1.0" stroke="#f4cf5e" stroke-width="2" stroke-opacity="1.0"/><g transform="translate(88.0,238)scale(1.0)" fill="none" stroke="#f4cf5e" stroke-width="2" stroke-linecap="round" stroke-linejoin="round"><path d="M8 15a6 6 0 1 0 8 0"/><path d="M9 9 7 2h10l-2 7"/></g><text x="100.0" y="292.0" font-family="DejaVu Sans, sans-serif" font-size="11" font-weight="600" letter-spacing="0" fill="#f4eede" text-anchor="middle" opacity="1.0">Medal</text><text x="100.0" y="308.0" font-family="DejaVu Sans, sans-serif" font-size="9" font-weight="400" letter-spacing="0" fill="#a8aab5" text-anchor="middle" opacity="1.0">earned</text><rect x="168.0" y="214.0" width="120.0" height="104.0" rx="16.0" fill="#1c1830" opacity="1.0" stroke="#3a3354" stroke-width="1.6" stroke-opacity="0.3"/><circle cx="228.0" cy="252.0" r="24.0" fill="#241f33" opacity="1.0" stroke="#8a8c99" stroke-width="2" stroke-opacity="1.0"/><g transform="translate(217.0,241)scale(0.9166666666666666)" fill="none" stroke="#8a8c99" stroke-width="2" stroke-linecap="round" stroke-linejoin="round"><path d="M5 11h14a1 1 0 0 1 1 1v8a1 1 0 0 1-1 1H5a1 1 0 0 1-1-1v-8a1 1 0 0 1 1-1z"/><path d="M8 11V7a4 4 0 0 1 8 0v4"/></g><text x="228.0" y="292.0" font-family="DejaVu Sans, sans-serif" font-size="11" font-weight="600" letter-spacing="0" fill="#8a8c99" text-anchor="middle" opacity="1.0">Medal</text><text x="228.0" y="308.0" font-family="DejaVu Sans, sans-serif" font-size="9" font-weight="400" letter-spacing="0" fill="#a8aab5" text-anchor="middle" opacity="1.0">locked</text><rect x="296.0" y="214.0" width="120.0" height="104.0" rx="16.0" fill="#2a2540" opacity="1.0" stroke="#f4cf5e" stroke-width="1.6" stroke-opacity="0.6"/><circle cx="356.0" cy="252.0" r="24.0" fill="#241f33" opacity="1.0" stroke="#f4cf5e" stroke-width="2" stroke-opacity="1.0"/><g transform="translate(344.0,238)scale(1.0)" fill="none" stroke="#f4cf5e" stroke-width="2" stroke-linecap="round" stroke-linejoin="round"><path d="M8 15a6 6 0 1 0 8 0"/><path d="M9 9 7 2h10l-2 7"/></g><text x="356.0" y="292.0" font-family="DejaVu Sans, sans-serif" font-size="11" font-weight="600" letter-spacing="0" fill="#f4eede" text-anchor="middle" opacity="1.0">Medal</text><text x="356.0" y="308.0" font-family="DejaVu Sans, sans-serif" font-size="9" font-weight="400" letter-spacing="0" fill="#a8aab5" text-anchor="middle" opacity="1.0">earned</text><rect x="424.0" y="214.0" width="120.0" height="104.0" rx="16.0" fill="#2a2540" opacity="1.0" stroke="#f4cf5e" stroke-width="1.6" stroke-opacity="0.6"/><circle cx="484.0" cy="252.0" r="24.0" fill="#241f33" opacity="1.0" stroke="#f4cf5e" stroke-width="2" stroke-opacity="1.0"/><g transform="translate(472.0,238)scale(1.0)" fill="none" stroke="#f4cf5e" stroke-width="2" stroke-linecap="round" stroke-linejoin="round"><path d="M8 15a6 6 0 1 0 8 0"/><path d="M9 9 7 2h10l-2 7"/></g><text x="484.0" y="292.0" font-family="DejaVu Sans, sans-serif" font-size="11" font-weight="600" letter-spacing="0" fill="#f4eede" text-anchor="middle" opacity="1.0">Medal</text><text x="484.0" y="308.0" font-family="DejaVu Sans, sans-serif" font-size="9" font-weight="400" letter-spacing="0" fill="#a8aab5" text-anchor="middle" opacity="1.0">earned</text><rect x="552.0" y="214.0" width="120.0" height="104.0" rx="16.0" fill="#1c1830" opacity="1.0" stroke="#3a3354" stroke-width="1.6" stroke-opacity="0.3"/><circle cx="612.0" cy="252.0" r="24.0" fill="#241f33" opacity="1.0" stroke="#8a8c99" stroke-width="2" stroke-opacity="1.0"/><g transform="translate(601.0,241)scale(0.9166666666666666)" fill="none" stroke="#8a8c99" stroke-width="2" stroke-linecap="round" stroke-linejoin="round"><path d="M5 11h14a1 1 0 0 1 1 1v8a1 1 0 0 1-1 1H5a1 1 0 0 1-1-1v-8a1 1 0 0 1 1-1z"/><path d="M8 11V7a4 4 0 0 1 8 0v4"/></g><text x="612.0" y="292.0" font-family="DejaVu Sans, sans-serif" font-size="11" font-weight="600" letter-spacing="0" fill="#8a8c99" text-anchor="middle" opacity="1.0">Medal</text><text x="612.0" y="308.0" font-family="DejaVu Sans, sans-serif" font-size="9" font-weight="400" letter-spacing="0" fill="#a8aab5" text-anchor="middle" opacity="1.0">locked</text><rect x="680.0" y="214.0" width="120.0" height="104.0" rx="16.0" fill="#2a2540" opacity="1.0" stroke="#f4cf5e" stroke-width="1.6" stroke-opacity="0.6"/><circle cx="740.0" cy="252.0" r="24.0" fill="#241f33" opacity="1.0" stroke="#f4cf5e" stroke-width="2" stroke-opacity="1.0"/><g transform="translate(728.0,238)scale(1.0)" fill="none" stroke="#f4cf5e" stroke-width="2" stroke-linecap="round" stroke-linejoin="round"><path d="M8 15a6 6 0 1 0 8 0"/><path d="M9 9 7 2h10l-2 7"/></g><text x="740.0" y="292.0" font-family="DejaVu Sans, sans-serif" font-size="11" font-weight="600" letter-spacing="0" fill="#f4eede" text-anchor="middle" opacity="1.0">Medal</text><text x="740.0" y="308.0" font-family="DejaVu Sans, sans-serif" font-size="9" font-weight="400" letter-spacing="0" fill="#a8aab5" text-anchor="middle" opacity="1.0">earned</text><rect x="40.0" y="332.0" width="120.0" height="104.0" rx="16.0" fill="#1c1830" opacity="1.0" stroke="#3a3354" stroke-width="1.6" stroke-opacity="0.3"/><circle cx="100.0" cy="370.0" r="24.0" fill="#241f33" opacity="1.0" stroke="#8a8c99" stroke-width="2" stroke-opacity="1.0"/><g transform="translate(89.0,359)scale(0.9166666666666666)" fill="none" stroke="#8a8c99" stroke-width="2" stroke-linecap="round" stroke-linejoin="round"><path d="M5 11h14a1 1 0 0 1 1 1v8a1 1 0 0 1-1 1H5a1 1 0 0 1-1-1v-8a1 1 0 0 1 1-1z"/><path d="M8 11V7a4 4 0 0 1 8 0v4"/></g><text x="100.0" y="410.0" font-family="DejaVu Sans, sans-serif" font-size="11" font-weight="600" letter-spacing="0" fill="#8a8c99" text-anchor="middle" opacity="1.0">Medal</text><text x="100.0" y="426.0" font-family="DejaVu Sans, sans-serif" font-size="9" font-weight="400" letter-spacing="0" fill="#a8aab5" text-anchor="middle" opacity="1.0">locked</text><rect x="168.0" y="332.0" width="120.0" height="104.0" rx="16.0" fill="#2a2540" opacity="1.0" stroke="#f4cf5e" stroke-width="1.6" stroke-opacity="0.6"/><circle cx="228.0" cy="370.0" r="24.0" fill="#241f33" opacity="1.0" stroke="#f4cf5e" stroke-width="2" stroke-opacity="1.0"/><g transform="translate(216.0,356)scale(1.0)" fill="none" stroke="#f4cf5e" stroke-width="2" stroke-linecap="round" stroke-linejoin="round"><path d="M8 15a6 6 0 1 0 8 0"/><path d="M9 9 7 2h10l-2 7"/></g><text x="228.0" y="410.0" font-family="DejaVu Sans, sans-serif" font-size="11" font-weight="600" letter-spacing="0" fill="#f4eede" text-anchor="middle" opacity="1.0">Medal</text><text x="228.0" y="426.0" font-family="DejaVu Sans, sans-serif" font-size="9" font-weight="400" letter-spacing="0" fill="#a8aab5" text-anchor="middle" opacity="1.0">earned</text><rect x="296.0" y="332.0" width="120.0" height="104.0" rx="16.0" fill="#2a2540" opacity="1.0" stroke="#f4cf5e" stroke-width="1.6" stroke-opacity="0.6"/><circle cx="356.0" cy="370.0" r="24.0" fill="#241f33" opacity="1.0" stroke="#f4cf5e" stroke-width="2" stroke-opacity="1.0"/><g transform="translate(344.0,356)scale(1.0)" fill="none" stroke="#f4cf5e" stroke-width="2" stroke-linecap="round" stroke-linejoin="round"><path d="M8 15a6 6 0 1 0 8 0"/><path d="M9 9 7 2h10l-2 7"/></g><text x="356.0" y="410.0" font-family="DejaVu Sans, sans-serif" font-size="11" font-weight="600" letter-spacing="0" fill="#f4eede" text-anchor="middle" opacity="1.0">Medal</text><text x="356.0" y="426.0" font-family="DejaVu Sans, sans-serif" font-size="9" font-weight="400" letter-spacing="0" fill="#a8aab5" text-anchor="middle" opacity="1.0">earned</text><rect x="424.0" y="332.0" width="120.0" height="104.0" rx="16.0" fill="#1c1830" opacity="1.0" stroke="#3a3354" stroke-width="1.6" stroke-opacity="0.3"/><circle cx="484.0" cy="370.0" r="24.0" fill="#241f33" opacity="1.0" stroke="#8a8c99" stroke-width="2" stroke-opacity="1.0"/><g transform="translate(473.0,359)scale(0.9166666666666666)" fill="none" stroke="#8a8c99" stroke-width="2" stroke-linecap="round" stroke-linejoin="round"><path d="M5 11h14a1 1 0 0 1 1 1v8a1 1 0 0 1-1 1H5a1 1 0 0 1-1-1v-8a1 1 0 0 1 1-1z"/><path d="M8 11V7a4 4 0 0 1 8 0v4"/></g><text x="484.0" y="410.0" font-family="DejaVu Sans, sans-serif" font-size="11" font-weight="600" letter-spacing="0" fill="#8a8c99" text-anchor="middle" opacity="1.0">Medal</text><text x="484.0" y="426.0" font-family="DejaVu Sans, sans-serif" font-size="9" font-weight="400" letter-spacing="0" fill="#a8aab5" text-anchor="middle" opacity="1.0">locked</text><rect x="552.0" y="332.0" width="120.0" height="104.0" rx="16.0" fill="#2a2540" opacity="1.0" stroke="#f4cf5e" stroke-width="1.6" stroke-opacity="0.6"/><circle cx="612.0" cy="370.0" r="24.0" fill="#241f33" opacity="1.0" stroke="#f4cf5e" stroke-width="2" stroke-opacity="1.0"/><g transform="translate(600.0,356)scale(1.0)" fill="none" stroke="#f4cf5e" stroke-width="2" stroke-linecap="round" stroke-linejoin="round"><path d="M8 15a6 6 0 1 0 8 0"/><path d="M9 9 7 2h10l-2 7"/></g><text x="612.0" y="410.0" font-family="DejaVu Sans, sans-serif" font-size="11" font-weight="600" letter-spacing="0" fill="#f4eede" text-anchor="middle" opacity="1.0">Medal</text><text x="612.0" y="426.0" font-family="DejaVu Sans, sans-serif" font-size="9" font-weight="400" letter-spacing="0" fill="#a8aab5" text-anchor="middle" opacity="1.0">earned</text><rect x="680.0" y="332.0" width="120.0" height="104.0" rx="16.0" fill="#1c1830" opacity="1.0" stroke="#3a3354" stroke-width="1.6" stroke-opacity="0.3"/><circle cx="740.0" cy="370.0" r="24.0" fill="#241f33" opacity="1.0" stroke="#8a8c99" stroke-width="2" stroke-opacity="1.0"/><g transform="translate(729.0,359)scale(0.9166666666666666)" fill="none" stroke="#8a8c99" stroke-width="2" stroke-linecap="round" stroke-linejoin="round"><path d="M5 11h14a1 1 0 0 1 1 1v8a1 1 0 0 1-1 1H5a1 1 0 0 1-1-1v-8a1 1 0 0 1 1-1z"/><path d="M8 11V7a4 4 0 0 1 8 0v4"/></g><text x="740.0" y="410.0" font-family="DejaVu Sans, sans-serif" font-size="11" font-weight="600" letter-spacing="0" fill="#8a8c99" text-anchor="middle" opacity="1.0">Medal</text><text x="740.0" y="426.0" font-family="DejaVu Sans, sans-serif" font-size="9" font-weight="400" letter-spacing="0" fill="#a8aab5" text-anchor="middle" opacity="1.0">locked</text><rect x="40.0" y="404.0" width="150.0" height="40.0" rx="20.0" fill="#2a2540" opacity="1.0" stroke="#3a3354" stroke-width="1.4" stroke-opacity="1.0"/><text x="115.0" y="429.2" font-family="DejaVu Sans, sans-serif" font-size="15" font-weight="600" letter-spacing="0" fill="#f4eede" text-anchor="middle" opacity="1.0">← Back</text></g></g></svg>