<svg xmlns="http://www.w3.org/2000/svg" width="996" height="646" viewBox="0 0 996 646"><rect x="0.0" y="0.0" width="996.0" height="646.0" rx="0.0" fill="#0a2636" opacity="1.0"/><text x="28.0" y="30.0" font-family="DejaVu Sans, sans-serif" font-size="20" font-weight="800" letter-spacing="0" fill="#7CFCB0" text-anchor="start" opacity="1.0">6 · Blueprint schematic</text><text x="28.0" y="52.0" font-family="DejaVu Sans, sans-serif" font-size="13" font-weight="500" letter-spacing="0" fill="#7CFCB0" text-anchor="start" opacity="0.75">thin precise linework · grid · monospace HUD</text><rect x="8.0" y="78.0" width="980.0" height="560.0" rx="26.0" fill="#061922" opacity="1.0"/><g transform="translate(18,88)"><defs><filter id="glow" x="-60%" y="-60%" width="220%" height="220%"><feGaussianBlur stdDeviation="4" result="b"/><feMerge><feMergeNode in="b"/><feMergeNode in="SourceGraphic"/></feMerge></filter><filter id="softsh" x="-40%" y="-40%" width="180%" height="180%"><feDropShadow dx="0" dy="4" stdDeviation="5" flood-color="#000" flood-opacity="0.35"/></filter><radialGradient id="bgG" cx="0.5" cy="0.42" r="0.8"><stop offset="0" stop-color="#223f4d"/><stop offset="1" stop-color="#0a2a3a"/></radialGradient></defs><rect x="0.0" y="0.0" width="960.0" height="540.0" rx="0.0" fill="url(#bgG)" opacity="1.0"/><rect x="0.0" y="0.0" width="960.0" height="540.0" rx="0.0" fill="#0a2a3a" opacity="0.0"/><rect x="110.0" y="158.0" width="594.0" height="272.0" rx="7.0" fill="#0c3346" opacity="1.0" stroke="#7fdfff" stroke-width="2" stroke-opacity="0.6"/><line x1="134.0" y1="164.0" x2="134.0" y2="424.0" stroke="#7fdfff" stroke-width="0.6" opacity="0.18" stroke-linecap="butt"/><line x1="166.0" y1="164.0" x2="166.0" y2="424.0" stroke="#7fdfff" stroke-width="0.6" opacity="0.18" stroke-linecap="butt"/><line x1="198.0" y1="164.0" x2="198.0" y2="424.0" stroke="#7fdfff" stroke-width="0.6" opacity="0.18" stroke-linecap="butt"/><line x1="230.0" y1="164.0" x2="230.0" y2="424.0" stroke="#7fdfff" stroke-width="0.6" opacity="0.18" stroke-linecap="butt"/><line x1="262.0" y1="164.0" x2="262.0" y2="424.0" stroke="#7fdfff" stroke-width="0.6" opacity="0.18" stroke-linecap="butt"/><line x1="294.0" y1="164.0" x2="294.0" y2="424.0" stroke="#7fdfff" stroke-width="0.6" opacity="0.18" stroke-linecap="butt"/><line x1="326.0" y1="164.0" x2="326.0" y2="424.0" stroke="#7fdfff" stroke-width="0.6" opacity="0.18" stroke-linecap="butt"/><line x1="358.0" y1="164.0" x2="358.0" y2="424.0" stroke="#7fdfff" stroke-width="0.6" opacity="0.18" stroke-linecap="butt"/><line x1="390.0" y1="164.0" x2="390.0" y2="424.0" stroke="#7fdfff" stroke-width="0.6" opacity="0.18" stroke-linecap="butt"/><line x1="422.0" y1="164.0" x2="422.0" y2="424.0" stroke="#7fdfff" stroke-width="0.6" opacity="0.18" stroke-linecap="butt"/><line x1="454.0" y1="164.0" x2="454.0" y2="424.0" stroke="#7fdfff" stroke-width="0.6" opacity="0.18" stroke-linecap="butt"/><line x1="486.0" y1="164.0" x2="486.0" y2="424.0" stroke="#7fdfff" stroke-width="0.6" opacity="0.18" stroke-linecap="butt"/><line x1="518.0" y1="164.0" x2="518.0" y2="424.0" stroke="#7fdfff" stroke-width="0.6" opacity="0.18" stroke-linecap="butt"/><line x1="550.0" y1="164.0" x2="550.0" y2="424.0" stroke="#7fdfff" stroke-width="0.6" opacity="0.18" stroke-linecap="butt"/><line x1="582.0" y1="164.0" x2="582.0" y2="424.0" stroke="#7fdfff" stroke-width="0.6" opacity="0.18" stroke-linecap="butt"/><line x1="614.0" y1="164.0" x2="614.0" y2="424.0" stroke="#7fdfff" stroke-width="0.6" opacity="0.18" stroke-linecap="butt"/><line x1="646.0" y1="164.0" x2="646.0" y2="424.0" stroke="#7fdfff" stroke-width="0.6" opacity="0.18" stroke-linecap="butt"/><line x1="678.0" y1="164.0" x2="678.0" y2="424.0" stroke="#7fdfff" stroke-width="0.6" opacity="0.18" stroke-linecap="butt"/><line x1="116.0" y1="182.0" x2="698.0" y2="182.0" stroke="#7fdfff" stroke-width="0.6" opacity="0.18" stroke-linecap="butt"/><line x1="116.0" y1="214.0" x2="698.0" y2="214.0" stroke="#7fdfff" stroke-width="0.6" opacity="0.18" stroke-linecap="butt"/><line x1="116.0" y1="246.0" x2="698.0" y2="246.0" stroke="#7fdfff" stroke-width="0.6" opacity="0.18" stroke-linecap="butt"/><line x1="116.0" y1="278.0" x2="698.0" y2="278.0" stroke="#7fdfff" stroke-width="0.6" opacity="0.18" stroke-linecap="butt"/><line x1="116.0" y1="310.0" x2="698.0" y2="310.0" stroke="#7fdfff" stroke-width="0.6" opacity="0.18" stroke-linecap="butt"/><line x1="116.0" y1="342.0" x2="698.0" y2="342.0" stroke="#7fdfff" stroke-width="0.6" opacity="0.18" stroke-linecap="butt"/><line x1="116.0" y1="374.0" x2="698.0" y2="374.0" stroke="#7fdfff" stroke-width="0.6" opacity="0.18" stroke-linecap="butt"/><line x1="116.0" y1="406.0" x2="698.0" y2="406.0" stroke="#7fdfff" stroke-width="0.6" opacity="0.18" stroke-linecap="butt"/><rect x="288.2" y="245.0" width="237.6" height="97.9" rx="3.0" fill="none" opacity="1.0" stroke="#cdeeff" stroke-width="1.4" stroke-opacity="0.18" stroke-dasharray="2 8"/><rect x="712.0" y="74.0" width="236.0" height="98.0" rx="2.0" fill="#12435c" opacity="1.0"/><line x1="726.0" y1="123.0" x2="934.0" y2="123.0" stroke="#9fe8ff" stroke-width="3" opacity="0.85" stroke-linecap="round" stroke-dasharray="16 12"/><line x1="712.0" y1="123.0" x2="704.0" y2="123.0" stroke="#12435c" stroke-width="6" opacity="0.5" stroke-linecap="round"/><rect x="712.0" y="188.0" width="236.0" height="98.0" rx="2.0" fill="#12435c" opacity="1.0"/><line x1="726.0" y1="237.0" x2="934.0" y2="237.0" stroke="#9fe8ff" stroke-width="3" opacity="0.85" stroke-linecap="round" stroke-dasharray="16 12"/><line x1="712.0" y1="237.0" x2="704.0" y2="237.0" stroke="#12435c" stroke-width="6" opacity="0.5" stroke-linecap="round"/><rect x="712.0" y="302.0" width="236.0" height="98.0" rx="2.0" fill="#12435c" opacity="1.0"/><line x1="726.0" y1="351.0" x2="934.0" y2="351.0" stroke="#9fe8ff" stroke-width="3" opacity="0.85" stroke-linecap="round" stroke-dasharray="16 12"/><line x1="712.0" y1="351.0" x2="704.0" y2="351.0" stroke="#12435c" stroke-width="6" opacity="0.5" stroke-linecap="round"/><rect x="712.0" y="416.0" width="236.0" height="98.0" rx="2.0" fill="#12435c" opacity="1.0"/><line x1="726.0" y1="465.0" x2="934.0" y2="465.0" stroke="#9fe8ff" stroke-width="3" opacity="0.85" stroke-linecap="round" stroke-dasharray="16 12"/><line x1="712.0" y1="465.0" x2="704.0" y2="465.0" stroke="#12435c" stroke-width="6" opacity="0.5" stroke-linecap="round"/><circle cx="930.0" cy="131.0" r="24.0" fill="none" opacity="1.0" stroke="#7CFCB0" stroke-width="3" stroke-opacity="0.8" filter="url(#glow)"/><g><polygon points="913.0,131.0 939.4,139.5 935.1,133.0 947.0,141.5 949.5,138.1 939.4,131.0 949.5,123.9 947.0,120.5 935.1,129.0 939.4,122.5" fill="none" opacity="1.0" stroke="#9fe8ff" stroke-width="2" stroke-linejoin="round"/></g><circle cx="930.0" cy="359.0" r="24.0" fill="none" opacity="1.0" stroke="#7CFCB0" stroke-width="3" stroke-opacity="0.8" filter="url(#glow)"/><g><polygon points="913.0,359.0 939.4,367.5 935.1,361.0 947.0,369.5 949.5,366.1 939.4,359.0 949.5,351.9 947.0,348.5 935.1,357.0 939.4,350.5" fill="none" opacity="1.0" stroke="#9fe8ff" stroke-width="2" stroke-linejoin="round"/></g><circle cx="930.0" cy="473.0" r="24.0" fill="none" opacity="1.0" stroke="#7CFCB0" stroke-width="3" stroke-opacity="0.8" filter="url(#glow)"/><g><polygon points="913.0,473.0 939.4,481.5 935.1,475.0 947.0,483.5 949.5,480.1 939.4,473.0 949.5,465.9 947.0,462.5 935.1,471.0 939.4,464.5" fill="none" opacity="1.0" stroke="#9fe8ff" stroke-width="2" stroke-linejoin="round"/></g><rect x="118.0" y="72.0" width="84.0" height="82.0" rx="3.0" fill="#0c3346" opacity="1.0" stroke="#9fe8ff" stroke-width="1.6" stroke-opacity="1.0"/><line x1="179.8" y1="113.0" x2="190.0" y2="113.0" stroke="#9fe8ff" stroke-width="12.709999999999999" opacity="1" stroke-linecap="butt"/><line x1="174.0" y1="127.0" x2="181.2" y2="134.2" stroke="#9fe8ff" stroke-width="12.709999999999999" opacity="1" stroke-linecap="butt"/><line x1="160.0" y1="132.8" x2="160.0" y2="143.0" stroke="#9fe8ff" stroke-width="12.709999999999999" opacity="1" stroke-linecap="butt"/><line x1="146.0" y1="127.0" x2="138.8" y2="134.2" stroke="#9fe8ff" stroke-width="12.709999999999999" opacity="1" stroke-linecap="butt"/><line x1="140.2" y1="113.0" x2="130.0" y2="113.0" stroke="#9fe8ff" stroke-width="12.709999999999999" opacity="1" stroke-linecap="butt"/><line x1="146.0" y1="99.0" x2="138.8" y2="91.8" stroke="#9fe8ff" stroke-width="12.709999999999999" opacity="1" stroke-linecap="butt"/><line x1="160.0" y1="93.2" x2="160.0" y2="83.0" stroke="#9fe8ff" stroke-width="12.709999999999999" opacity="1" stroke-linecap="butt"/><line x1="174.0" y1="99.0" x2="181.2" y2="91.8" stroke="#9fe8ff" stroke-width="12.709999999999999" opacity="1" stroke-linecap="butt"/><circle cx="160.0" cy="113.0" r="21.6" fill="#9fe8ff" opacity="1.0"/><circle cx="160.0" cy="113.0" r="8.6" fill="#0000" opacity="1.0" stroke="#00000055" stroke-width="8.6428" stroke-opacity="1.0"/><rect x="216.0" y="72.0" width="84.0" height="82.0" rx="3.0" fill="#0c3346" opacity="1.0" stroke="#9fe8ff" stroke-width="1.6" stroke-opacity="1.0"/><path d="M 258.0 77.1 C 288.1 108.7 283.8 141.7 258.0 141.7 C 232.2 141.7 227.9 108.7 258.0 77.1 Z" fill="#9fe8ff" opacity="1.0"/><rect x="314.0" y="72.0" width="84.0" height="82.0" rx="3.0" fill="#0a2636" opacity="1.0" stroke="#9fe8ff" stroke-width="1.6" stroke-opacity="1.0"/><path d="M 335.7 104.7 V 85.0 A 20.3 20.3 0 0 1 376.3 85.0 V 104.7" fill="none" opacity="1.0" stroke="#7CFCB0" stroke-width="11.152000000000003" stroke-linecap="round" stroke-linejoin="round"/><rect x="324.8" y="104.7" width="62.3" height="44.3" rx="9.8" fill="#cdeeff" opacity="1.0"/><circle cx="356.0" cy="124.4" r="7.2" fill="#00000066" opacity="1.0"/><rect x="326.0" y="132.0" width="60.0" height="18.0" rx="9.0" fill="#7CFCB0" opacity="1.0"/><text x="356.0" y="145.0" font-family="DejaVu Sans, sans-serif" font-size="12" font-weight="800" letter-spacing="0" fill="#0a0a0a" text-anchor="middle" opacity="1.0">1 200</text><rect x="412.0" y="72.0" width="84.0" height="82.0" rx="3.0" fill="#0c3346" opacity="1.0" stroke="#9fe8ff" stroke-width="1.6" stroke-opacity="1.0"/><circle cx="454.0" cy="92.9" r="14.3" fill="#9fe8ff" opacity="1.0"/><path d="M 433.9 138.8 C 433.9 110.1 474.1 110.1 474.1 138.8 Z" fill="#9fe8ff" opacity="1.0"/><rect x="118.0" y="440.0" width="84.0" height="82.0" rx="3.0" fill="#0c3346" opacity="1.0" stroke="#9fe8ff" stroke-width="1.6" stroke-opacity="1.0"/><circle cx="160.0" cy="460.9" r="14.3" fill="#9fe8ff" opacity="1.0"/><path d="M 139.9 506.8 C 139.9 478.1 180.1 478.1 180.1 506.8 Z" fill="#9fe8ff" opacity="1.0"/><rect x="216.0" y="440.0" width="84.0" height="82.0" rx="3.0" fill="#0c3346" opacity="1.0" stroke="#9fe8ff" stroke-width="1.6" stroke-opacity="1.0"/><line x1="277.8" y1="481.0" x2="288.0" y2="481.0" stroke="#9fe8ff" stroke-width="12.709999999999999" opacity="1" stroke-linecap="butt"/><line x1="272.0" y1="495.0" x2="279.2" y2="502.2" stroke="#9fe8ff" stroke-width="12.709999999999999" opacity="1" stroke-linecap="butt"/><line x1="258.0" y1="500.8" x2="258.0" y2="511.0" stroke="#9fe8ff" stroke-width="12.709999999999999" opacity="1" stroke-linecap="butt"/><line x1="244.0" y1="495.0" x2="236.8" y2="502.2" stroke="#9fe8ff" stroke-width="12.709999999999999" opacity="1" stroke-linecap="butt"/><line x1="238.2" y1="481.0" x2="228.0" y2="481.0" stroke="#9fe8ff" stroke-width="12.709999999999999" opacity="1" stroke-linecap="butt"/><line x1="244.0" y1="467.0" x2="236.8" y2="459.8" stroke="#9fe8ff" stroke-width="12.709999999999999" opacity="1" stroke-linecap="butt"/><line x1="258.0" y1="461.2" x2="258.0" y2="451.0" stroke="#9fe8ff" stroke-width="12.709999999999999" opacity="1" stroke-linecap="butt"/><line x1="272.0" y1="467.0" x2="279.2" y2="459.8" stroke="#9fe8ff" stroke-width="12.709999999999999" opacity="1" stroke-linecap="butt"/><circle cx="258.0" cy="481.0" r="21.6" fill="#9fe8ff" opacity="1.0"/><circle cx="258.0" cy="481.0" r="8.6" fill="#0000" opacity="1.0" stroke="#00000055" stroke-width="8.6428" stroke-opacity="1.0"/><rect x="314.0" y="440.0" width="84.0" height="82.0" rx="3.0" fill="#0c3346" opacity="1.0" stroke="#9fe8ff" stroke-width="1.6" stroke-opacity="1.0"/><path d="M 356.0 445.1 C 386.1 476.7 381.8 509.7 356.0 509.7 C 330.2 509.7 325.9 476.7 356.0 445.1 Z" fill="#9fe8ff" opacity="1.0"/><rect x="412.0" y="440.0" width="84.0" height="82.0" rx="3.0" fill="#0a2636" opacity="1.0" stroke="#9fe8ff" stroke-width="1.6" stroke-opacity="1.0"/><path d="M 433.7 472.7 V 453.0 A 20.3 20.3 0 0 1 474.3 453.0 V 472.7" fill="none" opacity="1.0" stroke="#7CFCB0" stroke-width="11.152000000000003" stroke-linecap="round" stroke-linejoin="round"/><rect x="422.8" y="472.7" width="62.3" height="44.3" rx="9.8" fill="#cdeeff" opacity="1.0"/><circle cx="454.0" cy="492.4" r="7.2" fill="#00000066" opacity="1.0"/><rect x="424.0" y="500.0" width="60.0" height="18.0" rx="9.0" fill="#7CFCB0" opacity="1.0"/><text x="454.0" y="513.0" font-family="DejaVu Sans, sans-serif" font-size="12" font-weight="800" letter-spacing="0" fill="#0a0a0a" text-anchor="middle" opacity="1.0">2 500</text><rect x="12.0" y="168.0" width="82.0" height="84.7" rx="3.0" fill="#0c3346" opacity="1.0" stroke="#9fe8ff" stroke-width="1.6" stroke-opacity="1.0"/><path d="M 53.0 174.5 C 83.1 206.0 78.8 239.0 53.0 239.0 C 27.2 239.0 22.9 206.0 53.0 174.5 Z" fill="#9fe8ff" opacity="1.0"/><rect x="12.0" y="260.7" width="82.0" height="84.7" rx="3.0" fill="#0a2636" opacity="1.0" stroke="#9fe8ff" stroke-width="1.6" stroke-opacity="1.0"/><path d="M 32.7 294.7 V 275.0 A 20.3 20.3 0 0 1 73.3 275.0 V 294.7" fill="none" opacity="1.0" stroke="#7CFCB0" stroke-width="11.152000000000003" stroke-linecap="round" stroke-linejoin="round"/><rect x="21.8" y="294.7" width="62.3" height="44.3" rx="9.8" fill="#cdeeff" opacity="1.0"/><circle cx="53.0" cy="314.4" r="7.2" fill="#00000066" opacity="1.0"/><rect x="23.0" y="323.3" width="60.0" height="18.0" rx="9.0" fill="#7CFCB0" opacity="1.0"/><text x="53.0" y="336.3" font-family="DejaVu Sans, sans-serif" font-size="12" font-weight="800" letter-spacing="0" fill="#0a0a0a" text-anchor="middle" opacity="1.0">900</text><rect x="12.0" y="353.3" width="82.0" height="84.7" rx="3.0" fill="#0c3346" opacity="1.0" stroke="#9fe8ff" stroke-width="1.6" stroke-opacity="1.0"/><line x1="72.8" y1="395.7" x2="83.0" y2="395.7" stroke="#9fe8ff" stroke-width="12.709999999999999" opacity="1" stroke-linecap="butt"/><line x1="67.0" y1="409.7" x2="74.2" y2="416.9" stroke="#9fe8ff" stroke-width="12.709999999999999" opacity="1" stroke-linecap="butt"/><line x1="53.0" y1="415.5" x2="53.0" y2="425.7" stroke="#9fe8ff" stroke-width="12.709999999999999" opacity="1" stroke-linecap="butt"/><line x1="39.0" y1="409.7" x2="31.8" y2="416.9" stroke="#9fe8ff" stroke-width="12.709999999999999" opacity="1" stroke-linecap="butt"/><line x1="33.2" y1="395.7" x2="23.0" y2="395.7" stroke="#9fe8ff" stroke-width="12.709999999999999" opacity="1" stroke-linecap="butt"/><line x1="39.0" y1="381.6" x2="31.8" y2="374.5" stroke="#9fe8ff" stroke-width="12.709999999999999" opacity="1" stroke-linecap="butt"/><line x1="53.0" y1="375.8" x2="53.0" y2="365.7" stroke="#9fe8ff" stroke-width="12.709999999999999" opacity="1" stroke-linecap="butt"/><line x1="67.0" y1="381.6" x2="74.2" y2="374.5" stroke="#9fe8ff" stroke-width="12.709999999999999" opacity="1" stroke-linecap="butt"/><circle cx="53.0" cy="395.7" r="21.6" fill="#9fe8ff" opacity="1.0"/><circle cx="53.0" cy="395.7" r="8.6" fill="#0000" opacity="1.0" stroke="#00000055" stroke-width="8.6428" stroke-opacity="1.0"/><path d="M 920 359.0 C 672 389.0 407.0 315.76 231.4 410" fill="none" opacity="0.35" stroke="#7CFCB0" stroke-width="9" stroke-linecap="round" stroke-linejoin="round" filter="url(#glow)"/><path d="M 920 359.0 C 672 389.0 407.0 315.76 231.4 410" fill="none" opacity="1.0" stroke="#7CFCB0" stroke-width="3" stroke-linecap="round" stroke-linejoin="round" stroke-dasharray="6 8" filter="url(#glow)"/><circle cx="920.0" cy="359.0" r="22.0" fill="none" opacity="1.0" stroke="#7CFCB0" stroke-width="4" stroke-opacity="1.0" filter="url(#glow)"/><circle cx="231.4" cy="410.0" r="12.0" fill="#7CFCB0" opacity="0.25" filter="url(#glow)"/><path d="M 231.4 410.0 C 222.2 414.6 217.6 433.0 220.4 451.4 C 222.2 465.2 236.0 469.8 249.8 467.5 C 261.3 465.2 263.6 451.4 261.3 437.6 C 259.0 428.4 254.4 423.8 249.8 421.5 L 241.5 417.4 Z" fill="#f3cba0" opacity="1.0" stroke="#00000044" stroke-width="1.5" stroke-linecap="round" stroke-linejoin="round"/><circle cx="231.4" cy="410.0" r="7.4" fill="#ffffff" opacity="1.0"/><rect x="0.0" y="0.0" width="960.0" height="60.0" rx="0.0" fill="#0a2636cc" opacity="1.0"/><line x1="0.0" y1="60.0" x2="960.0" y2="60.0" stroke="#cdeeff" stroke-width="1" opacity="0.25" stroke-linecap="round"/><path d="M 22.0 39.4 C 6.6 27.8 14.3 17.9 22.0 26.1 C 29.7 17.9 37.4 27.8 22.0 39.4 Z" fill="#9fe8ff" opacity="1.0"/><path d="M 52.0 39.4 C 36.6 27.8 44.3 17.9 52.0 26.1 C 59.7 17.9 67.4 27.8 52.0 39.4 Z" fill="#9fe8ff" opacity="1.0"/><path d="M 82.0 39.4 C 66.6 27.8 74.3 17.9 82.0 26.1 C 89.7 17.9 97.4 27.8 82.0 39.4 Z" fill="#476872" opacity="1.0"/><circle cx="130.0" cy="30.0" r="14.0" fill="#9fe8ff" opacity="1.0" stroke="#0a2a3a" stroke-width="3.08" stroke-opacity="1.0"/><text x="130.0" y="37.0" font-family="DejaVu Sans, sans-serif" font-size="18.2" font-weight="900" letter-spacing="0" fill="#0a2a3a" text-anchor="middle" opacity="1.0">$</text><text x="152.0" y="37.0" font-family="DejaVu Sans Mono, monospace" font-size="22" font-weight="800" letter-spacing="0" fill="#cdeeff" text-anchor="start" opacity="1.0">20 000</text><text x="480.0" y="22.0" font-family="DejaVu Sans, sans-serif" font-size="12" font-weight="700" letter-spacing="2" fill="#cdeeff" text-anchor="middle" opacity="0.8">LEVEL 12 · GOAL</text><rect x="370.0" y="30.0" width="220.0" height="12.0" rx="6.0" fill="#cdeeff" opacity="0.18"/><rect x="370.0" y="30.0" width="99.0" height="12.0" rx="6.0" fill="#7CFCB0" opacity="1.0" filter="url(#glow)"/><text x="600.0" y="41.0" font-family="DejaVu Sans Mono, monospace" font-size="15" font-weight="800" letter-spacing="0" fill="#cdeeff" text-anchor="start" opacity="1.0">8/14</text><text x="810.0" y="37.0" font-family="DejaVu Sans Mono, monospace" font-size="22" font-weight="800" letter-spacing="0" fill="#cdeeff" text-anchor="end" opacity="1.0">14:56</text><rect x="842.0" y="14.0" width="34.0" height="34.0" rx="9.0" fill="#7CFCB0" opacity="1.0" filter="url(#glow)"/><rect x="850.0" y="21.0" width="6.0" height="18.0" rx="2.0" fill="#0a0a0a" opacity="1.0"/><rect x="860.0" y="21.0" width="6.0" height="18.0" rx="2.0" fill="#0a0a0a" opacity="1.0"/></g></svg>