<svg xmlns="http://www.w3.org/2000/svg" width="1180" height="640" viewBox="0 0 1180 640"><defs><linearGradient id="fg" x1="0" y1="0" x2="0" y2="1"><stop offset="0" stop-color="#211d33"/><stop offset="1" stop-color="#16131f"/></linearGradient></defs><rect x="0.0" y="0.0" width="1180.0" height="640.0" rx="0.0" fill="url(#fg)" opacity="1.0"/><text x="40.0" y="52.0" font-family="DejaVu Sans, sans-serif" font-size="26" font-weight="800" letter-spacing=".5" fill="#f4eede" text-anchor="start" opacity="1.0">PlaneFlow — Screen Flow</text><text x="40.0" y="76.0" font-family="DejaVu Sans, sans-serif" font-size="14" font-weight="400" letter-spacing="0" fill="#a8aab5" text-anchor="start" opacity="1.0">how the screens connect</text><rect x="70.0" y="140.0" width="180.0" height="70.0" rx="16.0" fill="#2a2540" opacity="1.0" stroke="#5dca7a" stroke-width="2" stroke-opacity="0.8"/><text x="160.0" y="181.0" font-family="DejaVu Sans, sans-serif" font-size="16" font-weight="700" letter-spacing="0" fill="#f4eede" text-anchor="middle" opacity="1.0">Start / Menu</text><rect x="70.0" y="300.0" width="180.0" height="60.0" rx="16.0" fill="#2a2540" opacity="1.0" stroke="#a8aab5" stroke-width="2" stroke-opacity="0.8"/><text x="160.0" y="336.0" font-family="DejaVu Sans, sans-serif" font-size="16" font-weight="700" letter-spacing="0" fill="#f4eede" text-anchor="middle" opacity="1.0">Settings</text><rect x="70.0" y="400.0" width="180.0" height="56.0" rx="16.0" fill="#2a2540" opacity="1.0" stroke="#ef798a" stroke-width="2" stroke-opacity="0.8"/><text x="160.0" y="434.0" font-family="DejaVu Sans, sans-serif" font-size="16" font-weight="700" letter-spacing="0" fill="#f4eede" text-anchor="middle" opacity="1.0">Reset confirm</text><rect x="70.0" y="500.0" width="180.0" height="56.0" rx="16.0" fill="#2a2540" opacity="1.0" stroke="#f4cf5e" stroke-width="2" stroke-opacity="0.8"/><text x="160.0" y="534.0" font-family="DejaVu Sans, sans-serif" font-size="16" font-weight="700" letter-spacing="0" fill="#f4eede" text-anchor="middle" opacity="1.0">Medals</text><rect x="380.0" y="140.0" width="180.0" height="70.0" rx="16.0" fill="#2a2540" opacity="1.0" stroke="#f2a93b" stroke-width="2" stroke-opacity="0.8"/><text x="470.0" y="173.0" font-family="DejaVu Sans, sans-serif" font-size="16" font-weight="700" letter-spacing="0" fill="#f4eede" text-anchor="middle" opacity="1.0">Level select</text><text x="470.0" y="191.0" font-family="DejaVu Sans, sans-serif" font-size="11" font-weight="400" letter-spacing="0" fill="#a8aab5" text-anchor="middle" opacity="1.0">«Flight map»</text><rect x="380.0" y="320.0" width="180.0" height="64.0" rx="16.0" fill="#2a2540" opacity="1.0" stroke="#9a6fd4" stroke-width="2" stroke-opacity="0.8"/><text x="470.0" y="350.0" font-family="DejaVu Sans, sans-serif" font-size="16" font-weight="700" letter-spacing="0" fill="#f4eede" text-anchor="middle" opacity="1.0">Shift goals</text><text x="470.0" y="368.0" font-family="DejaVu Sans, sans-serif" font-size="11" font-weight="400" letter-spacing="0" fill="#a8aab5" text-anchor="middle" opacity="1.0">start of level</text><rect x="700.0" y="200.0" width="210.0" height="90.0" rx="16.0" fill="#2a2540" opacity="1.0" stroke="#5dca7a" stroke-width="2" stroke-opacity="0.8"/><text x="805.0" y="243.0" font-family="DejaVu Sans, sans-serif" font-size="16" font-weight="700" letter-spacing="0" fill="#f4eede" text-anchor="middle" opacity="1.0">IN-GAME (HUD)</text><text x="805.0" y="261.0" font-family="DejaVu Sans, sans-serif" font-size="11" font-weight="400" letter-spacing="0" fill="#a8aab5" text-anchor="middle" opacity="1.0">routing · the core loop</text><rect x="700.0" y="400.0" width="210.0" height="60.0" rx="16.0" fill="#2a2540" opacity="1.0" stroke="#4ab4d6" stroke-width="2" stroke-opacity="0.8"/><text x="805.0" y="436.0" font-family="DejaVu Sans, sans-serif" font-size="16" font-weight="700" letter-spacing="0" fill="#f4eede" text-anchor="middle" opacity="1.0">Pause</text><rect x="1000.0" y="200.0" width="150.0" height="70.0" rx="16.0" fill="#2a2540" opacity="1.0" stroke="#9a6fd4" stroke-width="2" stroke-opacity="0.8"/><text x="1075.0" y="233.0" font-family="DejaVu Sans, sans-serif" font-size="16" font-weight="700" letter-spacing="0" fill="#f4eede" text-anchor="middle" opacity="1.0">Aircraft card</text><text x="1075.0" y="251.0" font-family="DejaVu Sans, sans-serif" font-size="11" font-weight="400" letter-spacing="0" fill="#a8aab5" text-anchor="middle" opacity="1.0">tap a plane</text><rect x="700.0" y="540.0" width="210.0" height="64.0" rx="16.0" fill="#2a2540" opacity="1.0" stroke="#f4cf5e" stroke-width="2" stroke-opacity="0.8"/><text x="805.0" y="570.0" font-family="DejaVu Sans, sans-serif" font-size="16" font-weight="700" letter-spacing="0" fill="#f4eede" text-anchor="middle" opacity="1.0">End of shift</text><text x="805.0" y="588.0" font-family="DejaVu Sans, sans-serif" font-size="11" font-weight="400" letter-spacing="0" fill="#a8aab5" text-anchor="middle" opacity="1.0">stars · stats</text><line x1="250.0" y1="170.0" x2="380.0" y2="170.0" stroke="#8a8c99" stroke-width="2.2" opacity="0.9" stroke-linecap="round"/><polygon points="380,170 370.8,173.9 370.8,166.1" fill="#8a8c99"/><text x="315.0" y="162.0" font-family="DejaVu Sans, sans-serif" font-size="11" font-weight="600" letter-spacing="0" fill="#8a8c99" text-anchor="middle" opacity="1.0">Play / Levels</text><line x1="160.0" y1="210.0" x2="160.0" y2="300.0" stroke="#8a8c99" stroke-width="2.2" opacity="0.9" stroke-linecap="round"/><polygon points="160,300 156.1,290.8 163.9,290.8" fill="#8a8c99"/><line x1="160.0" y1="360.0" x2="160.0" y2="400.0" stroke="#ef798a" stroke-width="2.2" opacity="0.9" stroke-linecap="round"/><polygon points="160,400 156.1,390.8 163.9,390.8" fill="#ef798a"/><text x="160.0" y="372.0" font-family="DejaVu Sans, sans-serif" font-size="11" font-weight="600" letter-spacing="0" fill="#ef798a" text-anchor="middle" opacity="1.0">reset</text><path d="M70 186 L34 186 L34 528 L70 528" fill="none" stroke="#f4cf5e" stroke-width="2.2" opacity="0.9" stroke-linecap="round" stroke-linejoin="round"/><polygon points="70,528 60.8,531.9 60.8,524.1" fill="#f4cf5e"/><path d="M160 210 L160 250 L690 250 L700 250" fill="none" stroke="#5dca7a" stroke-width="2.2" opacity="0.9" stroke-linecap="round" stroke-linejoin="round"/><polygon points="700,250 690.8,253.9 690.8,246.1" fill="#5dca7a"/><text x="420.0" y="242.0" font-family="DejaVu Sans, sans-serif" font-size="11" font-weight="600" letter-spacing="0" fill="#5dca7a" text-anchor="middle" opacity="1.0">Zen (direct)</text><line x1="470.0" y1="210.0" x2="470.0" y2="320.0" stroke="#f2a93b" stroke-width="2.2" opacity="0.9" stroke-linecap="round"/><polygon points="470,320 466.1,310.8 473.9,310.8" fill="#f2a93b"/><text x="470.0" y="257.0" font-family="DejaVu Sans, sans-serif" font-size="11" font-weight="600" letter-spacing="0" fill="#f2a93b" text-anchor="middle" opacity="1.0">tap level</text><line x1="560.0" y1="345.0" x2="700.0" y2="262.0" stroke="#9a6fd4" stroke-width="2.2" opacity="0.9" stroke-linecap="round"/><polygon points="700,262 694.1,270.0 690.1,263.3" fill="#9a6fd4"/><text x="630.0" y="295.5" font-family="DejaVu Sans, sans-serif" font-size="11" font-weight="600" letter-spacing="0" fill="#9a6fd4" text-anchor="middle" opacity="1.0">Got it</text><line x1="795.0" y1="290.0" x2="795.0" y2="400.0" stroke="#4ab4d6" stroke-width="2.2" opacity="0.9" stroke-linecap="round"/><polygon points="795,400 791.1,390.8 798.9,390.8" fill="#4ab4d6"/><text x="770.0" y="350.0" font-family="DejaVu Sans, sans-serif" font-size="11" font-weight="600" letter-spacing="0" fill="#4ab4d6" text-anchor="end" opacity="1.0">pause</text><line x1="818.0" y1="400.0" x2="818.0" y2="290.0" stroke="#8a8c99" stroke-width="2.2" opacity="0.9" stroke-linecap="round"/><polygon points="818,290 821.9,299.2 814.1,299.2" fill="#8a8c99"/><text x="842.0" y="350.0" font-family="DejaVu Sans, sans-serif" font-size="11" font-weight="600" letter-spacing="0" fill="#8a8c99" text-anchor="start" opacity="1.0">resume</text><line x1="910.0" y1="235.0" x2="1000.0" y2="235.0" stroke="#9a6fd4" stroke-width="2.2" opacity="0.9" stroke-linecap="round"/><polygon points="1000,235 990.8,238.9 990.8,231.1" fill="#9a6fd4"/><text x="955.0" y="227.0" font-family="DejaVu Sans, sans-serif" font-size="11" font-weight="600" letter-spacing="0" fill="#9a6fd4" text-anchor="middle" opacity="1.0">tap plane</text><path d="M910 272 L960 272 L960 572 L910 572" fill="none" stroke="#f4cf5e" stroke-width="2.2" opacity="0.9" stroke-linecap="round" stroke-linejoin="round"/><polygon points="910,572 919.2,568.1 919.2,575.9" fill="#f4cf5e"/><text x="968.0" y="420.0" font-family="DejaVu Sans, sans-serif" font-size="11" font-weight="600" letter-spacing="0" fill="#f4cf5e" text-anchor="start" opacity="1.0">goal met /</text><text x="968.0" y="434.0" font-family="DejaVu Sans, sans-serif" font-size="11" font-weight="600" letter-spacing="0" fill="#f4cf5e" text-anchor="start" opacity="1.0">out of lives</text><path d="M700 556 L660 556 L660 110 L470 110 L470 140" fill="none" stroke="#8a8c99" stroke-width="2.2" opacity="0.9" stroke-linecap="round" stroke-linejoin="round" stroke-dasharray="4 6"/><polygon points="470,140 466.1,130.8 473.9,130.8" fill="#8a8c99"/><text x="560.0" y="100.0" font-family="DejaVu Sans, sans-serif" font-size="11" font-weight="600" letter-spacing="0" fill="#8a8c99" text-anchor="middle" opacity="1.0">Levels / Retry / Next</text></svg>