<svg xmlns="http://www.w3.org/2000/svg" width="972" height="576" viewBox="0 0 972 576"><rect width="972" height="576" fill="#0d0b14"/><text x="8.0" y="28.0" font-family="DejaVu Sans, sans-serif" font-size="20" font-weight="700" letter-spacing="0.5" fill="#f4eede" text-anchor="start" opacity="1.0">01 · Start / Main menu</text><text x="8.0" y="50.0" font-family="DejaVu Sans, sans-serif" font-size="13" font-weight="400" letter-spacing="0" fill="#a8aab5" text-anchor="start" opacity="1.0">Landscape: brand+art left, one big PLAY, secondary actions stacked at the right thumb-rail.</text><rect x="0.0" y="64.0" width="972.0" height="512.0" rx="30.0" fill="#000" opacity="1.0"/><rect x="4.0" y="68.0" width="964.0" height="504.0" rx="26.0" fill="#3a3550" opacity="1.0"/><rect x="23.0" y="87.0" width="926.0" height="466.0" rx="18.0" fill="#0a0810" opacity="1.0"/><clipPath id="scr"><rect x="26" y="90" width="920" height="460" rx="14"/></clipPath><g clip-path="url(#scr)"><g transform="translate(26,90)"><defs><linearGradient id="mg" x1="0" y1="0" x2="0" y2="1"><stop offset="0" stop-color="#211d33"/><stop offset="1" stop-color="#16131f"/></linearGradient></defs><rect x="0.0" y="0.0" width="920.0" height="460.0" rx="0.0" fill="url(#mg)" opacity="1.0"/><circle cx="40.0" cy="426.0" r="2.4" fill="#f2a93b" opacity="0.5"/><circle cx="66.0" cy="426.0" r="2.4" fill="#f2a93b" opacity="0.5"/><circle cx="92.0" cy="426.0" r="2.4" fill="#f2a93b" opacity="0.5"/><circle cx="118.0" cy="426.0" r="2.4" fill="#f2a93b" opacity="0.5"/><circle cx="144.0" cy="426.0" r="2.4" fill="#f2a93b" opacity="0.5"/><circle cx="170.0" cy="426.0" r="2.4" fill="#f2a93b" opacity="0.5"/><circle cx="196.0" cy="426.0" r="2.4" fill="#f2a93b" opacity="0.5"/><g transform="translate(150,150)rotate(28)scale(1.875)translate(-32,-32)"><ellipse cx="32" cy="52" rx="15" ry="4" fill="#000" opacity="0.18"/><path d="M28.6 27 C22 29 14 33 8.3 36.8 C6.2 38.1 6.6 40.4 8.9 39.9 C16 38 23 36 28.6 34.4 Z" fill="#e8e0cf" stroke="#cdbf9f" stroke-width="0.7"/><path d="M35.4 27 C42 29 50 33 55.7 36.8 C57.8 38.1 57.4 40.4 55.1 39.9 C48 38 41 36 35.4 34.4 Z" fill="#e8e0cf" stroke="#cdbf9f" stroke-width="0.7"/><path d="M29.2 48.5 C26 50 22 52 20.4 53.6 C19.7 54.2 20.1 55.2 21 54.9 C24 54 27.4 52.6 29.6 51.6 Z" fill="#e8e0cf" stroke="#cdbf9f" stroke-width="0.7"/><path d="M34.8 48.5 C38 50 42 52 43.6 53.6 C44.3 54.2 43.9 55.2 43 54.9 C40 54 36.6 52.6 34.4 51.6 Z" fill="#e8e0cf" stroke="#cdbf9f" stroke-width="0.7"/><path d="M32 6.5 C34.2 6.5 35.5 9.5 35.9 13.5 C36.5 20 36.9 28 36.4 38 C36 46 34.4 53 32 56 C29.6 53 28 46 27.6 38 C27.1 28 27.5 20 28.1 13.5 C28.5 9.5 29.8 6.5 32 6.5 Z" fill="#f4eede" stroke="#cdbf9f" stroke-width="0.9"/><path d="M28.9 13.5 C30 11 34 11 35.1 13.5 C35.6 16.2 34 18.4 32 18.4 C30 18.4 28.4 16.2 28.9 13.5 Z" fill="#2a3050"/></g><g transform="translate(250,250)rotate(-15)scale(1.09375)translate(-32,-32)"><ellipse cx="32" cy="52" rx="15" ry="4" fill="#000" opacity="0.18"/><path d="M28.6 27 C22 29 14 33 8.3 36.8 C6.2 38.1 6.6 40.4 8.9 39.9 C16 38 23 36 28.6 34.4 Z" fill="#eabf4e" stroke="#d8a93b" stroke-width="0.7"/><path d="M35.4 27 C42 29 50 33 55.7 36.8 C57.8 38.1 57.4 40.4 55.1 39.9 C48 38 41 36 35.4 34.4 Z" fill="#eabf4e" stroke="#d8a93b" stroke-width="0.7"/><path d="M29.2 48.5 C26 50 22 52 20.4 53.6 C19.7 54.2 20.1 55.2 21 54.9 C24 54 27.4 52.6 29.6 51.6 Z" fill="#eabf4e" stroke="#d8a93b" stroke-width="0.7"/><path d="M34.8 48.5 C38 50 42 52 43.6 53.6 C44.3 54.2 43.9 55.2 43 54.9 C40 54 36.6 52.6 34.4 51.6 Z" fill="#eabf4e" stroke="#d8a93b" stroke-width="0.7"/><path d="M32 6.5 C34.2 6.5 35.5 9.5 35.9 13.5 C36.5 20 36.9 28 36.4 38 C36 46 34.4 53 32 56 C29.6 53 28 46 27.6 38 C27.1 28 27.5 20 28.1 13.5 C28.5 9.5 29.8 6.5 32 6.5 Z" fill="#f4cf5e" stroke="#d8a93b" stroke-width="0.9"/><path d="M28.9 13.5 C30 11 34 11 35.1 13.5 C35.6 16.2 34 18.4 32 18.4 C30 18.4 28.4 16.2 28.9 13.5 Z" fill="#2a3050"/></g><text x="60.0" y="300.0" font-family="DejaVu Sans, sans-serif" font-size="58" font-weight="800" letter-spacing="1" fill="#f4eede" text-anchor="start" opacity="1.0">PLANEFLOW</text><text x="62.0" y="330.0" font-family="DejaVu Sans, sans-serif" font-size="16" font-weight="400" letter-spacing="0" fill="#a8aab5" text-anchor="start" opacity="1.0">route the planes · keep the flow</text><text x="62.0" y="352.0" font-family="DejaVu Sans, sans-serif" font-size="14" font-weight="400" letter-spacing="0" fill="#8a8c99" text-anchor="start" opacity="1.0">проводи борты · держи поток</text><rect x="660.0" y="60.0" width="240.0" height="340.0" rx="28.0" fill="#2a2540" opacity="1.0" stroke="#3a3354" stroke-width="1.5" stroke-opacity="0.5"/><rect x="680.0" y="96.0" width="200.0" height="58.0" rx="29.0" fill="#5dca7a" opacity="1.0"/><text x="780.0" y="132.0" font-family="DejaVu Sans, sans-serif" font-size="20" font-weight="600" letter-spacing="0" fill="#10331c" text-anchor="middle" opacity="1.0">▶  PLAY</text><rect x="680.0" y="166.0" width="200.0" height="46.0" rx="23.0" fill="#4ecdc4" opacity="1.0"/><text x="780.0" y="194.6" font-family="DejaVu Sans, sans-serif" font-size="16" font-weight="600" letter-spacing="0" fill="#0d2b2a" text-anchor="middle" opacity="1.0">☾  Zen</text><rect x="680.0" y="222.0" width="200.0" height="46.0" rx="23.0" fill="#2a2540" opacity="1.0" stroke="#3a3354" stroke-width="1.4" stroke-opacity="1.0"/><text x="780.0" y="250.6" font-family="DejaVu Sans, sans-serif" font-size="16" font-weight="600" letter-spacing="0" fill="#f4eede" text-anchor="middle" opacity="1.0">≡  Levels</text><rect x="680.0" y="278.0" width="200.0" height="46.0" rx="23.0" fill="#2a2540" opacity="1.0" stroke="#3a3354" stroke-width="1.4" stroke-opacity="1.0"/><text x="780.0" y="306.6" font-family="DejaVu Sans, sans-serif" font-size="16" font-weight="600" letter-spacing="0" fill="#f4eede" text-anchor="middle" opacity="1.0">🏅 Medals</text><rect x="680.0" y="334.0" width="200.0" height="46.0" rx="23.0" fill="#2a2540" opacity="1.0" stroke="#3a3354" stroke-width="1.4" stroke-opacity="1.0"/><text x="780.0" y="362.6" font-family="DejaVu Sans, sans-serif" font-size="16" font-weight="600" letter-spacing="0" fill="#f4eede" text-anchor="middle" opacity="1.0">⚙  Settings</text><text x="780.0" y="420.0" font-family="DejaVu Sans, sans-serif" font-size="12" font-weight="400" letter-spacing="0" fill="#8a8c99" text-anchor="middle" opacity="1.0">v0.20</text><text x="60.0" y="40.0" font-family="DejaVu Sans, sans-serif" font-size="12" font-weight="700" letter-spacing="0.3" fill="#4ab4d6" text-anchor="start" opacity="1.0">◀ brand + cozy art (left half, no buttons)</text><text x="560.0" y="40.0" font-family="DejaVu Sans, sans-serif" font-size="12" font-weight="700" letter-spacing="0.3" fill="#4ab4d6" text-anchor="start" opacity="1.0">primary CTA biggest · thumb-reachable right rail ▶</text></g></g></svg>