<svg xmlns="http://www.w3.org/2000/svg" width="972" height="576" viewBox="0 0 972 576"><rect width="972" height="576" fill="#0d0b14"/><text x="8.0" y="28.0" font-family="DejaVu Sans, sans-serif" font-size="20" font-weight="700" letter-spacing="0.5" fill="#f4eede" text-anchor="start" opacity="1.0">05 · Pause</text><text x="8.0" y="50.0" font-family="DejaVu Sans, sans-serif" font-size="13" font-weight="400" letter-spacing="0" fill="#a8aab5" text-anchor="start" opacity="1.0">Field dimmed, not hidden. Goal/star recap + thumb-row of Resume·Restart·Menu. Gear opens settings.</text><rect x="0.0" y="64.0" width="972.0" height="512.0" rx="30.0" fill="#000" opacity="1.0"/><rect x="4.0" y="68.0" width="964.0" height="504.0" rx="26.0" fill="#3a3550" opacity="1.0"/><rect x="23.0" y="87.0" width="926.0" height="466.0" rx="18.0" fill="#0a0810" opacity="1.0"/><clipPath id="scr"><rect x="26" y="90" width="920" height="460" rx="14"/></clipPath><g clip-path="url(#scr)"><g transform="translate(26,90)"><rect x="0.0" y="0.0" width="920.0" height="460.0" rx="0.0" fill="#242842" opacity="1.0"/><rect x="-10.0" y="300.0" width="940.0" height="170.0" rx="0.0" fill="#20283a" opacity="1.0"/><rect x="70.0" y="120.0" width="360.0" height="46.0" rx="12.0" fill="#1b2032" opacity="1.0" stroke="#33405e" stroke-width="1.4" stroke-opacity="1.0"/><line x1="90.0" y1="143.0" x2="410.0" y2="143.0" stroke="#f4cf5e" stroke-width="2" opacity="0.5" stroke-linecap="round" stroke-dasharray="14 16"/><circle cx="95.0" cy="124.0" r="1.8" fill="#f2a93b" opacity="0.7"/><circle cx="95.0" cy="162.0" r="1.8" fill="#f2a93b" opacity="0.7"/><circle cx="135.0" cy="124.0" r="1.8" fill="#f2a93b" opacity="0.7"/><circle cx="135.0" cy="162.0" r="1.8" fill="#f2a93b" opacity="0.7"/><circle cx="175.0" cy="124.0" r="1.8" fill="#f2a93b" opacity="0.7"/><circle cx="175.0" cy="162.0" r="1.8" fill="#f2a93b" opacity="0.7"/><circle cx="215.0" cy="124.0" r="1.8" fill="#f2a93b" opacity="0.7"/><circle cx="215.0" cy="162.0" r="1.8" fill="#f2a93b" opacity="0.7"/><circle cx="255.0" cy="124.0" r="1.8" fill="#f2a93b" opacity="0.7"/><circle cx="255.0" cy="162.0" r="1.8" fill="#f2a93b" opacity="0.7"/><circle cx="295.0" cy="124.0" r="1.8" fill="#f2a93b" opacity="0.7"/><circle cx="295.0" cy="162.0" r="1.8" fill="#f2a93b" opacity="0.7"/><circle cx="335.0" cy="124.0" r="1.8" fill="#f2a93b" opacity="0.7"/><circle cx="335.0" cy="162.0" r="1.8" fill="#f2a93b" opacity="0.7"/><circle cx="375.0" cy="124.0" r="1.8" fill="#f2a93b" opacity="0.7"/><circle cx="375.0" cy="162.0" r="1.8" fill="#f2a93b" opacity="0.7"/><rect x="70.0" y="250.0" width="360.0" height="46.0" rx="12.0" fill="#1b2032" opacity="1.0" stroke="#33405e" stroke-width="1.4" stroke-opacity="1.0"/><line x1="90.0" y1="273.0" x2="410.0" y2="273.0" stroke="#f4cf5e" stroke-width="2" opacity="0.5" stroke-linecap="round" stroke-dasharray="14 16"/><circle cx="95.0" cy="254.0" r="1.8" fill="#f2a93b" opacity="0.7"/><circle cx="95.0" cy="292.0" r="1.8" fill="#f2a93b" opacity="0.7"/><circle cx="135.0" cy="254.0" r="1.8" fill="#f2a93b" opacity="0.7"/><circle cx="135.0" cy="292.0" r="1.8" fill="#f2a93b" opacity="0.7"/><circle cx="175.0" cy="254.0" r="1.8" fill="#f2a93b" opacity="0.7"/><circle cx="175.0" cy="292.0" r="1.8" fill="#f2a93b" opacity="0.7"/><circle cx="215.0" cy="254.0" r="1.8" fill="#f2a93b" opacity="0.7"/><circle cx="215.0" cy="292.0" r="1.8" fill="#f2a93b" opacity="0.7"/><circle cx="255.0" cy="254.0" r="1.8" fill="#f2a93b" opacity="0.7"/><circle cx="255.0" cy="292.0" r="1.8" fill="#f2a93b" opacity="0.7"/><circle cx="295.0" cy="254.0" r="1.8" fill="#f2a93b" opacity="0.7"/><circle cx="295.0" cy="292.0" r="1.8" fill="#f2a93b" opacity="0.7"/><circle cx="335.0" cy="254.0" r="1.8" fill="#f2a93b" opacity="0.7"/><circle cx="335.0" cy="292.0" r="1.8" fill="#f2a93b" opacity="0.7"/><circle cx="375.0" cy="254.0" r="1.8" fill="#f2a93b" opacity="0.7"/><circle cx="375.0" cy="292.0" r="1.8" fill="#f2a93b" opacity="0.7"/><rect x="500.0" y="330.0" width="74.0" height="74.0" rx="16.0" fill="#2a2540" opacity="1.0" stroke="#f2a93b" stroke-width="2" stroke-opacity="0.85"/><g transform="translate(522,348)scale(1.25)" fill="none" stroke="#f2a93b" stroke-width="2.2" stroke-linecap="round" stroke-linejoin="round"><path d="M14.7 6.3a1 1 0 0 0 0 1.4l1.6 1.6a1 1 0 0 0 1.4 0l3.77-3.77a6 6 0 0 1-7.94 7.94l-6.91 6.91a2.12 2.12 0 0 1-3-3l6.91-6.91a6 6 0 0 1 7.94-7.94l-3.76 3.76z"/></g><text x="537.0" y="420.0" font-family="DejaVu Sans, sans-serif" font-size="12" font-weight="400" letter-spacing="0" fill="#a8aab5" text-anchor="middle" opacity="1.0">Lv2</text><rect x="590.0" y="330.0" width="74.0" height="74.0" rx="16.0" fill="#2a2540" opacity="1.0" stroke="#4ecdc4" stroke-width="2" stroke-opacity="0.85"/><g transform="translate(612,348)scale(1.25)" fill="none" stroke="#4ecdc4" stroke-width="2.2" stroke-linecap="round" stroke-linejoin="round"><path d="M3 22h12"/><path d="M4 9h10"/><path d="M14 22V4a2 2 0 0 0-2-2H6a2 2 0 0 0-2 2v18"/><path d="M14 13h2a2 2 0 0 1 2 2v2a2 2 0 0 0 4 0V9.8a2 2 0 0 0-.6-1.4L18 5"/></g><text x="627.0" y="420.0" font-family="DejaVu Sans, sans-serif" font-size="12" font-weight="400" letter-spacing="0" fill="#a8aab5" text-anchor="middle" opacity="1.0">Lv2</text><rect x="680.0" y="330.0" width="74.0" height="74.0" rx="16.0" fill="#2a2540" opacity="1.0" stroke="#ef798a" stroke-width="2" stroke-opacity="0.85"/><g transform="translate(702,348)scale(1.25)" fill="none" stroke="#ef798a" stroke-width="2.2" stroke-linecap="round" stroke-linejoin="round"><path d="M16 21v-2a4 4 0 0 0-4-4H6a4 4 0 0 0-4 4v2"/><path d="M22 21v-2a4 4 0 0 0-3-3.87"/><path d="M16 3.13a4 4 0 0 1 0 7.75"/></g><text x="717.0" y="420.0" font-family="DejaVu Sans, sans-serif" font-size="12" font-weight="400" letter-spacing="0" fill="#a8aab5" text-anchor="middle" opacity="1.0">Lv2</text><rect x="770.0" y="330.0" width="74.0" height="74.0" rx="16.0" fill="#1b2032" opacity="1.0" stroke="#8a8c99" stroke-width="2" stroke-opacity="0.85"/><g transform="translate(792,348)scale(1.25)" fill="none" stroke="#8a8c99" stroke-width="2.2" stroke-linecap="round" stroke-linejoin="round"><path d="M5 11h14a1 1 0 0 1 1 1v8a1 1 0 0 1-1 1H5a1 1 0 0 1-1-1v-8a1 1 0 0 1 1-1z"/><path d="M8 11V7a4 4 0 0 1 8 0v4"/></g><rect x="778.0" y="406.0" width="58.0" height="24.0" rx="12.0" fill="#1c1830" opacity="1.0" stroke="#f4cf5e" stroke-width="1.4" stroke-opacity="0.9"/><circle cx="791.0" cy="418.0" r="7.0" fill="#f4cf5e" opacity="1.0" stroke="#d8a93b" stroke-width="1.4" stroke-opacity="1.0"/><text x="791.0" y="421.5" font-family="DejaVu Sans, sans-serif" font-size="9.799999999999999" font-weight="700" letter-spacing="0" fill="#8a6a16" text-anchor="middle" opacity="1.0">$</text><text x="802.0" y="423.0" font-family="DejaVu Sans, sans-serif" font-size="13" font-weight="700" letter-spacing="0" fill="#f4cf5e" text-anchor="start" opacity="1.0">3000</text><rect x="828.0" y="150.0" width="70.0" height="70.0" rx="16.0" fill="#2a2540" opacity="1.0" stroke="#4ab4d6" stroke-width="2" stroke-opacity="0.8"/><g transform="translate(842,164)scale(1.25)" fill="none" stroke="#4ab4d6" stroke-width="2" stroke-linecap="round" stroke-linejoin="round"><path d="M12 2v20"/><path d="M2 12h20"/><path d="M5 5l14 14"/><path d="M19 5 5 19"/></g><rect x="0.0" y="0.0" width="920.0" height="460.0" rx="0.0" fill="#0a0810" opacity="0.62"/><rect x="230.0" y="80.0" width="460.0" height="300.0" rx="24.0" fill="#2a2540" opacity="1.0" stroke="#3a3354" stroke-width="1.5" stroke-opacity="0.6"/><text x="460.0" y="122.0" font-family="DejaVu Sans, sans-serif" font-size="22" font-weight="800" letter-spacing=".5" fill="#f4eede" text-anchor="middle" opacity="1.0">‖  PAUSED</text><text x="460.0" y="150.0" font-family="DejaVu Sans, sans-serif" font-size="13" font-weight="400" letter-spacing="0" fill="#a8aab5" text-anchor="middle" opacity="1.0">Level 12 · accept 20 planes</text><rect x="258.0" y="176.0" width="404.0" height="30.0" rx="10.0" fill="#1c1830" opacity="1.0" stroke="#3a3354" stroke-width="1.5" stroke-opacity="0.3"/><text x="272.0" y="196.0" font-family="DejaVu Sans, sans-serif" font-size="13" font-weight="400" letter-spacing="0" fill="#f4eede" text-anchor="start" opacity="1.0">★  reach the goal</text><text x="648.0" y="196.0" font-family="DejaVu Sans, sans-serif" font-size="12" font-weight="700" letter-spacing="0" fill="#5dca7a" text-anchor="end" opacity="1.0">12 / 20</text><rect x="258.0" y="214.0" width="404.0" height="30.0" rx="10.0" fill="#1c1830" opacity="1.0" stroke="#3a3354" stroke-width="1.5" stroke-opacity="0.3"/><text x="272.0" y="234.0" font-family="DejaVu Sans, sans-serif" font-size="13" font-weight="400" letter-spacing="0" fill="#f4eede" text-anchor="start" opacity="1.0">★★  no half-pay departures</text><text x="648.0" y="234.0" font-family="DejaVu Sans, sans-serif" font-size="12" font-weight="700" letter-spacing="0" fill="#f2a93b" text-anchor="end" opacity="1.0">2 overdue</text><rect x="258.0" y="252.0" width="404.0" height="30.0" rx="10.0" fill="#1c1830" opacity="1.0" stroke="#3a3354" stroke-width="1.5" stroke-opacity="0.3"/><text x="272.0" y="272.0" font-family="DejaVu Sans, sans-serif" font-size="13" font-weight="400" letter-spacing="0" fill="#f4eede" text-anchor="start" opacity="1.0">★★★  no crashes</text><text x="648.0" y="272.0" font-family="DejaVu Sans, sans-serif" font-size="12" font-weight="700" letter-spacing="0" fill="#5dca7a" text-anchor="end" opacity="1.0">0 ✓</text><rect x="258.0" y="322.0" width="125.3" height="42.0" rx="21.0" fill="#5dca7a" opacity="1.0"/><text x="320.7" y="348.2" font-family="DejaVu Sans, sans-serif" font-size="15" font-weight="600" letter-spacing="0" fill="#10331c" text-anchor="middle" opacity="1.0">▶ Resume</text><rect x="397.3" y="322.0" width="125.3" height="42.0" rx="21.0" fill="#4ecdc4" opacity="1.0"/><text x="460.0" y="348.2" font-family="DejaVu Sans, sans-serif" font-size="15" font-weight="600" letter-spacing="0" fill="#0d2b2a" text-anchor="middle" opacity="1.0">↻ Restart</text><rect x="536.7" y="322.0" width="125.3" height="42.0" rx="21.0" fill="#2a2540" opacity="1.0" stroke="#3a3354" stroke-width="1.4" stroke-opacity="1.0"/><text x="599.3" y="348.2" font-family="DejaVu Sans, sans-serif" font-size="15" font-weight="600" letter-spacing="0" fill="#f4eede" text-anchor="middle" opacity="1.0">⌂ Menu</text><circle cx="660.0" cy="110.0" r="16.0" fill="#1c1830" opacity="1.0" stroke="#3a3354" stroke-width="1.4" stroke-opacity="1.0"/><g transform="translate(650.0,100.0)scale(0.8333333333333334)" fill="none" stroke="#a8aab5" stroke-width="1.6" stroke-linecap="round" stroke-linejoin="round"><path d="M12 15a3 3 0 1 0 0-6 3 3 0 0 0 0 6z"/><path d="M19.4 15a1.6 1.6 0 0 0 .32 1.77l.06.06a2 2 0 1 1-2.83 2.83l-.06-.06a1.6 1.6 0 0 0-2.7 1.15V21a2 2 0 1 1-4 0v-.06A1.6 1.6 0 0 0 7.7 19.4a1.6 1.6 0 0 0-1.77.32l-.06.06a2 2 0 1 1-2.83-2.83l.06-.06a1.6 1.6 0 0 0 .29-1.86 1.6 1.6 0 0 0-1.51-1V12a2 2 0 1 1 0-4h.06a1.6 1.6 0 0 0 1.15-2.7 1.6 1.6 0 0 0-.32-1.77l-.06-.06A2 2 0 1 1 5.5 1.84l.06.06a1.6 1.6 0 0 0 1.77.32H7.4A1.6 1.6 0 0 0 8.4 .6V.6a2 2 0 1 1 4 0v.06a1.6 1.6 0 0 0 2.7 1.15 1.6 1.6 0 0 0 .32-1.51l-.06-.06"/></g></g></g></svg>