<svg xmlns="http://www.w3.org/2000/svg" width="972" height="576" viewBox="0 0 972 576"><rect width="972" height="576" fill="#0d0b14"/><text x="8.0" y="28.0" font-family="DejaVu Sans, sans-serif" font-size="20" font-weight="700" letter-spacing="0.5" fill="#f4eede" text-anchor="start" opacity="1.0">06 · Shift goals (start of level)</text><text x="8.0" y="50.0" font-family="DejaVu Sans, sans-serif" font-size="13" font-weight="400" letter-spacing="0" fill="#a8aab5" text-anchor="start" opacity="1.0">Shown when a level begins. Three star tiers, big single CTA. Reopen from Pause.</text><rect x="0.0" y="64.0" width="972.0" height="512.0" rx="30.0" fill="#000" opacity="1.0"/><rect x="4.0" y="68.0" width="964.0" height="504.0" rx="26.0" fill="#3a3550" opacity="1.0"/><rect x="23.0" y="87.0" width="926.0" height="466.0" rx="18.0" fill="#0a0810" opacity="1.0"/><clipPath id="scr"><rect x="26" y="90" width="920" height="460" rx="14"/></clipPath><g clip-path="url(#scr)"><g transform="translate(26,90)"><defs><linearGradient id="mg" x1="0" y1="0" x2="0" y2="1"><stop offset="0" stop-color="#211d33"/><stop offset="1" stop-color="#16131f"/></linearGradient></defs><rect x="0.0" y="0.0" width="920.0" height="460.0" rx="0.0" fill="url(#mg)" opacity="1.0"/><circle cx="40.0" cy="426.0" r="2.4" fill="#f2a93b" opacity="0.5"/><circle cx="66.0" cy="426.0" r="2.4" fill="#f2a93b" opacity="0.5"/><circle cx="92.0" cy="426.0" r="2.4" fill="#f2a93b" opacity="0.5"/><circle cx="118.0" cy="426.0" r="2.4" fill="#f2a93b" opacity="0.5"/><circle cx="144.0" cy="426.0" r="2.4" fill="#f2a93b" opacity="0.5"/><circle cx="170.0" cy="426.0" r="2.4" fill="#f2a93b" opacity="0.5"/><circle cx="196.0" cy="426.0" r="2.4" fill="#f2a93b" opacity="0.5"/><rect x="220.0" y="80.0" width="480.0" height="300.0" rx="24.0" fill="#2a2540" opacity="1.0" stroke="#3a3354" stroke-width="1.5" stroke-opacity="0.6"/><text x="460.0" y="124.0" font-family="DejaVu Sans, sans-serif" font-size="22" font-weight="800" letter-spacing=".5" fill="#f4eede" text-anchor="middle" opacity="1.0">SHIFT GOALS</text><text x="460.0" y="148.0" font-family="DejaVu Sans, sans-serif" font-size="14" font-weight="600" letter-spacing="0" fill="#f2a93b" text-anchor="middle" opacity="1.0">Level 12</text><rect x="248.0" y="178.0" width="424.0" height="40.0" rx="12.0" fill="#1c1830" opacity="1.0" stroke="#3a3354" stroke-width="1.5" stroke-opacity="0.3"/><text x="268.0" y="204.0" font-family="DejaVu Sans, sans-serif" font-size="16" font-weight="700" letter-spacing="0" fill="#f4cf5e" text-anchor="start" opacity="1.0">★</text><text x="328.0" y="204.0" font-family="DejaVu Sans, sans-serif" font-size="13" font-weight="400" letter-spacing="0" fill="#f4eede" text-anchor="start" opacity="1.0">Accept 20 planes this shift</text><rect x="248.0" y="228.0" width="424.0" height="40.0" rx="12.0" fill="#1c1830" opacity="1.0" stroke="#3a3354" stroke-width="1.5" stroke-opacity="0.3"/><text x="268.0" y="254.0" font-family="DejaVu Sans, sans-serif" font-size="16" font-weight="700" letter-spacing="0" fill="#f4cf5e" text-anchor="start" opacity="1.0">★★</text><text x="328.0" y="254.0" font-family="DejaVu Sans, sans-serif" font-size="13" font-weight="400" letter-spacing="0" fill="#f4eede" text-anchor="start" opacity="1.0">…and no half-pay (overdue) departures</text><rect x="248.0" y="278.0" width="424.0" height="40.0" rx="12.0" fill="#1c1830" opacity="1.0" stroke="#3a3354" stroke-width="1.5" stroke-opacity="0.3"/><text x="268.0" y="304.0" font-family="DejaVu Sans, sans-serif" font-size="16" font-weight="700" letter-spacing="0" fill="#f4cf5e" text-anchor="start" opacity="1.0">★★★</text><text x="328.0" y="304.0" font-family="DejaVu Sans, sans-serif" font-size="13" font-weight="400" letter-spacing="0" fill="#f4eede" text-anchor="start" opacity="1.0">…and zero crashes</text><rect x="370.0" y="324.0" width="180.0" height="42.0" rx="21.0" fill="#5dca7a" opacity="1.0"/><text x="460.0" y="350.6" font-family="DejaVu Sans, sans-serif" font-size="16" font-weight="600" letter-spacing="0" fill="#10331c" text-anchor="middle" opacity="1.0">✓  Got it</text></g></g></svg>