<svg xmlns="http://www.w3.org/2000/svg" width="972" height="576" viewBox="0 0 972 576"><rect width="972" height="576" fill="#0d0b14"/><text x="8.0" y="28.0" font-family="DejaVu Sans, sans-serif" font-size="20" font-weight="700" letter-spacing="0.5" fill="#f4eede" text-anchor="start" opacity="1.0">01 · Start — variant A</text><text x="8.0" y="50.0" font-family="DejaVu Sans, sans-serif" font-size="13" font-weight="400" letter-spacing="0" fill="#a8aab5" text-anchor="start" opacity="1.0">Whole menu IS a boarding pass: brand + flight fields on the body, PLAY as the tear-off stub, secondary actions as stamps. Most on-theme.</text><rect x="0.0" y="64.0" width="972.0" height="512.0" rx="30.0" fill="#000" opacity="1.0"/><rect x="4.0" y="68.0" width="964.0" height="504.0" rx="26.0" fill="#3a3550" opacity="1.0"/><rect x="23.0" y="87.0" width="926.0" height="466.0" rx="18.0" fill="#0a0810" opacity="1.0"/><clipPath id="scr"><rect x="26" y="90" width="920" height="460" rx="14"/></clipPath><g clip-path="url(#scr)"><g transform="translate(26,90)"><defs><linearGradient id="mg" x1="0" y1="0" x2="0" y2="1"><stop offset="0" stop-color="#211d33"/><stop offset="1" stop-color="#16131f"/></linearGradient></defs><rect x="0.0" y="0.0" width="920.0" height="460.0" rx="0.0" fill="url(#mg)" opacity="1.0"/><circle cx="40.0" cy="426.0" r="2.4" fill="#f2a93b" opacity="0.5"/><circle cx="66.0" cy="426.0" r="2.4" fill="#f2a93b" opacity="0.5"/><circle cx="92.0" cy="426.0" r="2.4" fill="#f2a93b" opacity="0.5"/><circle cx="118.0" cy="426.0" r="2.4" fill="#f2a93b" opacity="0.5"/><circle cx="144.0" cy="426.0" r="2.4" fill="#f2a93b" opacity="0.5"/><circle cx="170.0" cy="426.0" r="2.4" fill="#f2a93b" opacity="0.5"/><circle cx="196.0" cy="426.0" r="2.4" fill="#f2a93b" opacity="0.5"/><rect x="100.0" y="75.0" width="720.0" height="290.0" rx="22.0" fill="#f4eede" opacity="1.0"/><rect x="100.0" y="75.0" width="720.0" height="290.0" rx="22.0" fill="none" opacity="1.0" stroke="#cdbf9f" stroke-width="1.5" stroke-opacity="1.0"/><circle cx="610.0" cy="75.0" r="11.0" fill="#211d33" opacity="1.0"/><circle cx="610.0" cy="365.0" r="11.0" fill="#211d33" opacity="1.0"/><line x1="610.0" y1="89.0" x2="610.0" y2="351.0" stroke="#cdbf9f" stroke-width="2" opacity="0.7" stroke-linecap="round" stroke-dasharray="3 6"/><text x="134.0" y="133.0" font-family="DejaVu Sans, sans-serif" font-size="42" font-weight="800" letter-spacing=".5" fill="#211d33" text-anchor="start" opacity="1.0">PLANEFLOW</text><circle cx="140.0" cy="161.0" r="5.0" fill="#5dca7a" opacity="1.0"/><text x="154.0" y="167.0" font-family="DejaVu Sans, sans-serif" font-size="14" font-weight="400" letter-spacing="0" fill="#5b5468" text-anchor="start" opacity="1.0">boarding now — route the planes</text><text x="134.0" y="225.0" font-family="DejaVu Sans, sans-serif" font-size="10" font-weight="700" letter-spacing=".15em" fill="#8a8398" text-anchor="start" opacity="1.0">FLIGHT</text><text x="134.0" y="251.0" font-family="DejaVu Sans, sans-serif" font-size="20" font-weight="700" letter-spacing="0" fill="#211d33" text-anchor="start" opacity="1.0">PF · 20</text><text x="270.0" y="225.0" font-family="DejaVu Sans, sans-serif" font-size="10" font-weight="700" letter-spacing=".15em" fill="#8a8398" text-anchor="start" opacity="1.0">GATE</text><text x="270.0" y="251.0" font-family="DejaVu Sans, sans-serif" font-size="20" font-weight="700" letter-spacing="0" fill="#211d33" text-anchor="start" opacity="1.0">A-3</text><text x="370.0" y="225.0" font-family="DejaVu Sans, sans-serif" font-size="10" font-weight="700" letter-spacing=".15em" fill="#8a8398" text-anchor="start" opacity="1.0">SEAT</text><text x="370.0" y="251.0" font-family="DejaVu Sans, sans-serif" font-size="20" font-weight="700" letter-spacing="0" fill="#211d33" text-anchor="start" opacity="1.0">∞</text><text x="460.0" y="225.0" font-family="DejaVu Sans, sans-serif" font-size="10" font-weight="700" letter-spacing=".15em" fill="#8a8398" text-anchor="start" opacity="1.0">BOARDS</text><text x="460.0" y="251.0" font-family="DejaVu Sans, sans-serif" font-size="20" font-weight="700" letter-spacing="0" fill="#211d33" text-anchor="start" opacity="1.0">∞ : ∞</text><rect x="134.0" y="307.0" width="100.0" height="38.0" rx="12.0" fill="#efe7d4" opacity="1.0" stroke="#4ecdc4" stroke-width="1.4" stroke-opacity="1.0"/><text x="184.0" y="331.0" font-family="DejaVu Sans, sans-serif" font-size="13" font-weight="700" letter-spacing="0" fill="#4a4458" text-anchor="middle" opacity="1.0">☾ Zen</text><rect x="246.0" y="307.0" width="100.0" height="38.0" rx="12.0" fill="#efe7d4" opacity="1.0" stroke="#9a6fd4" stroke-width="1.4" stroke-opacity="1.0"/><text x="296.0" y="331.0" font-family="DejaVu Sans, sans-serif" font-size="13" font-weight="700" letter-spacing="0" fill="#4a4458" text-anchor="middle" opacity="1.0">≡ Levels</text><rect x="358.0" y="307.0" width="100.0" height="38.0" rx="12.0" fill="#efe7d4" opacity="1.0" stroke="#f4cf5e" stroke-width="1.4" stroke-opacity="1.0"/><text x="408.0" y="331.0" font-family="DejaVu Sans, sans-serif" font-size="13" font-weight="700" letter-spacing="0" fill="#4a4458" text-anchor="middle" opacity="1.0">🏅 Medals</text><rect x="470.0" y="307.0" width="46.0" height="38.0" rx="12.0" fill="#efe7d4" opacity="1.0" stroke="#8a8c99" stroke-width="1.4" stroke-opacity="1.0"/><text x="493.0" y="331.0" font-family="DejaVu Sans, sans-serif" font-size="13" font-weight="700" letter-spacing="0" fill="#4a4458" text-anchor="middle" opacity="1.0">⚙</text><text x="715.0" y="119.0" font-family="DejaVu Sans, sans-serif" font-size="10" font-weight="700" letter-spacing=".2em" fill="#8a8398" text-anchor="middle" opacity="1.0">BOARDING PASS</text><rect x="634.0" y="147.0" width="162.0" height="70.0" rx="35.0" fill="#5dca7a" opacity="1.0"/><text x="715.0" y="191.1" font-family="DejaVu Sans, sans-serif" font-size="26" font-weight="600" letter-spacing="0" fill="#10331c" text-anchor="middle" opacity="1.0">▶  PLAY</text><text x="715.0" y="251.0" font-family="DejaVu Sans, sans-serif" font-size="11" font-weight="400" letter-spacing="0" fill="#8a8398" text-anchor="middle" opacity="1.0">your shift starts here</text><rect x="634.0" y="271.0" width="3.0" height="46.0" rx="0.0" fill="#211d33" opacity="1.0"/><rect x="639.0" y="271.0" width="5.0" height="46.0" rx="0.0" fill="#211d33" opacity="1.0"/><rect x="648.0" y="271.0" width="2.0" height="46.0" rx="0.0" fill="#211d33" opacity="1.0"/><rect x="652.0" y="271.0" width="2.0" height="46.0" rx="0.0" fill="#211d33" opacity="1.0"/><rect x="657.0" y="271.0" width="2.0" height="46.0" rx="0.0" fill="#211d33" opacity="1.0"/><rect x="663.0" y="271.0" width="2.0" height="46.0" rx="0.0" fill="#211d33" opacity="1.0"/><rect x="667.0" y="271.0" width="2.0" height="46.0" rx="0.0" fill="#211d33" opacity="1.0"/><rect x="672.0" y="271.0" width="5.0" height="46.0" rx="0.0" fill="#211d33" opacity="1.0"/><rect x="679.0" y="271.0" width="2.0" height="46.0" rx="0.0" fill="#211d33" opacity="1.0"/><rect x="683.0" y="271.0" width="5.0" height="46.0" rx="0.0" fill="#211d33" opacity="1.0"/><rect x="690.0" y="271.0" width="2.0" height="46.0" rx="0.0" fill="#211d33" opacity="1.0"/><rect x="694.0" y="271.0" width="2.0" height="46.0" rx="0.0" fill="#211d33" opacity="1.0"/><rect x="700.0" y="271.0" width="5.0" height="46.0" rx="0.0" fill="#211d33" opacity="1.0"/><rect x="707.0" y="271.0" width="2.0" height="46.0" rx="0.0" fill="#211d33" opacity="1.0"/><rect x="711.0" y="271.0" width="2.0" height="46.0" rx="0.0" fill="#211d33" opacity="1.0"/><rect x="716.0" y="271.0" width="5.0" height="46.0" rx="0.0" fill="#211d33" opacity="1.0"/><rect x="723.0" y="271.0" width="2.0" height="46.0" rx="0.0" fill="#211d33" opacity="1.0"/><rect x="729.0" y="271.0" width="3.0" height="46.0" rx="0.0" fill="#211d33" opacity="1.0"/><rect x="736.0" y="271.0" width="2.0" height="46.0" rx="0.0" fill="#211d33" opacity="1.0"/><rect x="740.0" y="271.0" width="2.0" height="46.0" rx="0.0" fill="#211d33" opacity="1.0"/><rect x="745.0" y="271.0" width="2.0" height="46.0" rx="0.0" fill="#211d33" opacity="1.0"/><rect x="751.0" y="271.0" width="2.0" height="46.0" rx="0.0" fill="#211d33" opacity="1.0"/><rect x="757.0" y="271.0" width="2.0" height="46.0" rx="0.0" fill="#211d33" opacity="1.0"/><rect x="763.0" y="271.0" width="2.0" height="46.0" rx="0.0" fill="#211d33" opacity="1.0"/><rect x="768.0" y="271.0" width="5.0" height="46.0" rx="0.0" fill="#211d33" opacity="1.0"/><rect x="776.0" y="271.0" width="5.0" height="46.0" rx="0.0" fill="#211d33" opacity="1.0"/><rect x="785.0" y="271.0" width="5.0" height="46.0" rx="0.0" fill="#211d33" opacity="1.0"/><rect x="793.0" y="271.0" width="3.0" height="46.0" rx="0.0" fill="#211d33" opacity="1.0"/><text x="460.0" y="399.0" font-family="DejaVu Sans, sans-serif" font-size="13" font-weight="700" letter-spacing="0" fill="#f4cf5e" text-anchor="middle" opacity="1.0">variant A — «Boarding pass»</text></g></g></svg>