<svg xmlns="http://www.w3.org/2000/svg" width="972" height="576" viewBox="0 0 972 576"><rect width="972" height="576" fill="#0d0b14"/><text x="8.0" y="28.0" font-family="DejaVu Sans, sans-serif" font-size="20" font-weight="700" letter-spacing="0.5" fill="#f4eede" text-anchor="start" opacity="1.0">03 · HUD — variant B</text><text x="8.0" y="50.0" font-family="DejaVu Sans, sans-serif" font-size="13" font-weight="400" letter-spacing="0" fill="#a8aab5" text-anchor="start" opacity="1.0">Minimal: a status pill top-left, a small goal ring top-centre, and a round pause in the bottom-right thumb zone. The most field-first option.</text><rect x="0.0" y="64.0" width="972.0" height="512.0" rx="30.0" fill="#000" opacity="1.0"/><rect x="4.0" y="68.0" width="964.0" height="504.0" rx="26.0" fill="#3a3550" opacity="1.0"/><rect x="23.0" y="87.0" width="926.0" height="466.0" rx="18.0" fill="#0a0810" opacity="1.0"/><clipPath id="scr"><rect x="26" y="90" width="920" height="460" rx="14"/></clipPath><g clip-path="url(#scr)"><g transform="translate(26,90)"><rect x="0.0" y="0.0" width="920.0" height="460.0" rx="0.0" fill="#242842" opacity="1.0"/><rect x="-10.0" y="300.0" width="940.0" height="170.0" rx="0.0" fill="#20283a" opacity="1.0"/><rect x="70.0" y="120.0" width="360.0" height="46.0" rx="12.0" fill="#1b2032" opacity="1.0" stroke="#33405e" stroke-width="1.4" stroke-opacity="1.0"/><line x1="90.0" y1="143.0" x2="410.0" y2="143.0" stroke="#f4cf5e" stroke-width="2" opacity="0.5" stroke-linecap="round" stroke-dasharray="14 16"/><circle cx="95.0" cy="124.0" r="1.8" fill="#f2a93b" opacity="0.7"/><circle cx="95.0" cy="162.0" r="1.8" fill="#f2a93b" opacity="0.7"/><circle cx="135.0" cy="124.0" r="1.8" fill="#f2a93b" opacity="0.7"/><circle cx="135.0" cy="162.0" r="1.8" fill="#f2a93b" opacity="0.7"/><circle cx="175.0" cy="124.0" r="1.8" fill="#f2a93b" opacity="0.7"/><circle cx="175.0" cy="162.0" r="1.8" fill="#f2a93b" opacity="0.7"/><circle cx="215.0" cy="124.0" r="1.8" fill="#f2a93b" opacity="0.7"/><circle cx="215.0" cy="162.0" r="1.8" fill="#f2a93b" opacity="0.7"/><circle cx="255.0" cy="124.0" r="1.8" fill="#f2a93b" opacity="0.7"/><circle cx="255.0" cy="162.0" r="1.8" fill="#f2a93b" opacity="0.7"/><circle cx="295.0" cy="124.0" r="1.8" fill="#f2a93b" opacity="0.7"/><circle cx="295.0" cy="162.0" r="1.8" fill="#f2a93b" opacity="0.7"/><circle cx="335.0" cy="124.0" r="1.8" fill="#f2a93b" opacity="0.7"/><circle cx="335.0" cy="162.0" r="1.8" fill="#f2a93b" opacity="0.7"/><circle cx="375.0" cy="124.0" r="1.8" fill="#f2a93b" opacity="0.7"/><circle cx="375.0" cy="162.0" r="1.8" fill="#f2a93b" opacity="0.7"/><rect x="70.0" y="250.0" width="360.0" height="46.0" rx="12.0" fill="#1b2032" opacity="1.0" stroke="#33405e" stroke-width="1.4" stroke-opacity="1.0"/><line x1="90.0" y1="273.0" x2="410.0" y2="273.0" stroke="#f4cf5e" stroke-width="2" opacity="0.5" stroke-linecap="round" stroke-dasharray="14 16"/><circle cx="95.0" cy="254.0" r="1.8" fill="#f2a93b" opacity="0.7"/><circle cx="95.0" cy="292.0" r="1.8" fill="#f2a93b" opacity="0.7"/><circle cx="135.0" cy="254.0" r="1.8" fill="#f2a93b" opacity="0.7"/><circle cx="135.0" cy="292.0" r="1.8" fill="#f2a93b" opacity="0.7"/><circle cx="175.0" cy="254.0" r="1.8" fill="#f2a93b" opacity="0.7"/><circle cx="175.0" cy="292.0" r="1.8" fill="#f2a93b" opacity="0.7"/><circle cx="215.0" cy="254.0" r="1.8" fill="#f2a93b" opacity="0.7"/><circle cx="215.0" cy="292.0" r="1.8" fill="#f2a93b" opacity="0.7"/><circle cx="255.0" cy="254.0" r="1.8" fill="#f2a93b" opacity="0.7"/><circle cx="255.0" cy="292.0" r="1.8" fill="#f2a93b" opacity="0.7"/><circle cx="295.0" cy="254.0" r="1.8" fill="#f2a93b" opacity="0.7"/><circle cx="295.0" cy="292.0" r="1.8" fill="#f2a93b" opacity="0.7"/><circle cx="335.0" cy="254.0" r="1.8" fill="#f2a93b" opacity="0.7"/><circle cx="335.0" cy="292.0" r="1.8" fill="#f2a93b" opacity="0.7"/><circle cx="375.0" cy="254.0" r="1.8" fill="#f2a93b" opacity="0.7"/><circle cx="375.0" cy="292.0" r="1.8" fill="#f2a93b" opacity="0.7"/><rect x="500.0" y="330.0" width="74.0" height="74.0" rx="16.0" fill="#2a2540" opacity="1.0" stroke="#f2a93b" stroke-width="2" stroke-opacity="0.85"/><g transform="translate(522,348)scale(1.25)" fill="none" stroke="#f2a93b" stroke-width="2.2" stroke-linecap="round" stroke-linejoin="round"><path d="M14.7 6.3a1 1 0 0 0 0 1.4l1.6 1.6a1 1 0 0 0 1.4 0l3.77-3.77a6 6 0 0 1-7.94 7.94l-6.91 6.91a2.12 2.12 0 0 1-3-3l6.91-6.91a6 6 0 0 1 7.94-7.94l-3.76 3.76z"/></g><text x="537.0" y="420.0" font-family="DejaVu Sans, sans-serif" font-size="12" font-weight="400" letter-spacing="0" fill="#a8aab5" text-anchor="middle" opacity="1.0">Lv2</text><rect x="590.0" y="330.0" width="74.0" height="74.0" rx="16.0" fill="#2a2540" opacity="1.0" stroke="#4ecdc4" stroke-width="2" stroke-opacity="0.85"/><g transform="translate(612,348)scale(1.25)" fill="none" stroke="#4ecdc4" stroke-width="2.2" stroke-linecap="round" stroke-linejoin="round"><path d="M3 22h12"/><path d="M4 9h10"/><path d="M14 22V4a2 2 0 0 0-2-2H6a2 2 0 0 0-2 2v18"/><path d="M14 13h2a2 2 0 0 1 2 2v2a2 2 0 0 0 4 0V9.8a2 2 0 0 0-.6-1.4L18 5"/></g><text x="627.0" y="420.0" font-family="DejaVu Sans, sans-serif" font-size="12" font-weight="400" letter-spacing="0" fill="#a8aab5" text-anchor="middle" opacity="1.0">Lv2</text><rect x="680.0" y="330.0" width="74.0" height="74.0" rx="16.0" fill="#2a2540" opacity="1.0" stroke="#ef798a" stroke-width="2" stroke-opacity="0.85"/><g transform="translate(702,348)scale(1.25)" fill="none" stroke="#ef798a" stroke-width="2.2" stroke-linecap="round" stroke-linejoin="round"><path d="M16 21v-2a4 4 0 0 0-4-4H6a4 4 0 0 0-4 4v2"/><path d="M22 21v-2a4 4 0 0 0-3-3.87"/><path d="M16 3.13a4 4 0 0 1 0 7.75"/></g><text x="717.0" y="420.0" font-family="DejaVu Sans, sans-serif" font-size="12" font-weight="400" letter-spacing="0" fill="#a8aab5" text-anchor="middle" opacity="1.0">Lv2</text><rect x="770.0" y="330.0" width="74.0" height="74.0" rx="16.0" fill="#1b2032" opacity="1.0" stroke="#8a8c99" stroke-width="2" stroke-opacity="0.85"/><g transform="translate(792,348)scale(1.25)" fill="none" stroke="#8a8c99" stroke-width="2.2" stroke-linecap="round" stroke-linejoin="round"><path d="M5 11h14a1 1 0 0 1 1 1v8a1 1 0 0 1-1 1H5a1 1 0 0 1-1-1v-8a1 1 0 0 1 1-1z"/><path d="M8 11V7a4 4 0 0 1 8 0v4"/></g><rect x="778.0" y="406.0" width="58.0" height="24.0" rx="12.0" fill="#1c1830" opacity="1.0" stroke="#f4cf5e" stroke-width="1.4" stroke-opacity="0.9"/><circle cx="791.0" cy="418.0" r="7.0" fill="#f4cf5e" opacity="1.0" stroke="#d8a93b" stroke-width="1.4" stroke-opacity="1.0"/><text x="791.0" y="421.5" font-family="DejaVu Sans, sans-serif" font-size="9.799999999999999" font-weight="700" letter-spacing="0" fill="#8a6a16" text-anchor="middle" opacity="1.0">$</text><text x="802.0" y="423.0" font-family="DejaVu Sans, sans-serif" font-size="13" font-weight="700" letter-spacing="0" fill="#f4cf5e" text-anchor="start" opacity="1.0">3000</text><rect x="828.0" y="150.0" width="70.0" height="70.0" rx="16.0" fill="#2a2540" opacity="1.0" stroke="#4ab4d6" stroke-width="2" stroke-opacity="0.8"/><g transform="translate(842,164)scale(1.25)" fill="none" stroke="#4ab4d6" stroke-width="2" stroke-linecap="round" stroke-linejoin="round"><path d="M12 2v20"/><path d="M2 12h20"/><path d="M5 5l14 14"/><path d="M19 5 5 19"/></g><path d="M250 143 C360 150 430 250 627 360" fill="none" stroke="#5dca7a" stroke-width="6" opacity="0.32"/><path d="M250 143 C360 150 430 250 627 360" fill="none" stroke="#5dca7a" stroke-width="3" opacity="0.95" stroke-dasharray="1 9" stroke-linecap="round"/><g transform="translate(250,143)rotate(90)scale(0.8125)translate(-32,-32)"><ellipse cx="32" cy="52" rx="15" ry="4" fill="#000" opacity="0.18"/><path d="M28.6 27 C22 29 14 33 8.3 36.8 C6.2 38.1 6.6 40.4 8.9 39.9 C16 38 23 36 28.6 34.4 Z" fill="#e8e0cf" stroke="#cdbf9f" stroke-width="0.7"/><path d="M35.4 27 C42 29 50 33 55.7 36.8 C57.8 38.1 57.4 40.4 55.1 39.9 C48 38 41 36 35.4 34.4 Z" fill="#e8e0cf" stroke="#cdbf9f" stroke-width="0.7"/><path d="M29.2 48.5 C26 50 22 52 20.4 53.6 C19.7 54.2 20.1 55.2 21 54.9 C24 54 27.4 52.6 29.6 51.6 Z" fill="#e8e0cf" stroke="#cdbf9f" stroke-width="0.7"/><path d="M34.8 48.5 C38 50 42 52 43.6 53.6 C44.3 54.2 43.9 55.2 43 54.9 C40 54 36.6 52.6 34.4 51.6 Z" fill="#e8e0cf" stroke="#cdbf9f" stroke-width="0.7"/><path d="M32 6.5 C34.2 6.5 35.5 9.5 35.9 13.5 C36.5 20 36.9 28 36.4 38 C36 46 34.4 53 32 56 C29.6 53 28 46 27.6 38 C27.1 28 27.5 20 28.1 13.5 C28.5 9.5 29.8 6.5 32 6.5 Z" fill="#f4eede" stroke="#cdbf9f" stroke-width="0.9"/><path d="M28.9 13.5 C30 11 34 11 35.1 13.5 C35.6 16.2 34 18.4 32 18.4 C30 18.4 28.4 16.2 28.9 13.5 Z" fill="#2a3050"/></g><circle cx="250.0" cy="143.0" r="26.0" fill="none" opacity="1.0" stroke="#5dca7a" stroke-width="2.4" stroke-opacity="1.0"/><g transform="translate(770,300)rotate(200)scale(0.78125)translate(-32,-32)"><ellipse cx="32" cy="52" rx="15" ry="4" fill="#000" opacity="0.18"/><path d="M28.6 27 C22 29 14 33 8.3 36.8 C6.2 38.1 6.6 40.4 8.9 39.9 C16 38 23 36 28.6 34.4 Z" fill="#e8e0cf" stroke="#cdbf9f" stroke-width="0.7"/><path d="M35.4 27 C42 29 50 33 55.7 36.8 C57.8 38.1 57.4 40.4 55.1 39.9 C48 38 41 36 35.4 34.4 Z" fill="#e8e0cf" stroke="#cdbf9f" stroke-width="0.7"/><path d="M29.2 48.5 C26 50 22 52 20.4 53.6 C19.7 54.2 20.1 55.2 21 54.9 C24 54 27.4 52.6 29.6 51.6 Z" fill="#e8e0cf" stroke="#cdbf9f" stroke-width="0.7"/><path d="M34.8 48.5 C38 50 42 52 43.6 53.6 C44.3 54.2 43.9 55.2 43 54.9 C40 54 36.6 52.6 34.4 51.6 Z" fill="#e8e0cf" stroke="#cdbf9f" stroke-width="0.7"/><path d="M32 6.5 C34.2 6.5 35.5 9.5 35.9 13.5 C36.5 20 36.9 28 36.4 38 C36 46 34.4 53 32 56 C29.6 53 28 46 27.6 38 C27.1 28 27.5 20 28.1 13.5 C28.5 9.5 29.8 6.5 32 6.5 Z" fill="#f4eede" stroke="#cdbf9f" stroke-width="0.9"/><path d="M28.9 13.5 C30 11 34 11 35.1 13.5 C35.6 16.2 34 18.4 32 18.4 C30 18.4 28.4 16.2 28.9 13.5 Z" fill="#2a3050"/></g><circle cx="770.0" cy="300.0" r="23.0" fill="none" opacity="1.0" stroke="#f2a93b" stroke-width="2.4" stroke-opacity="0.35"/><path d="M770.0 277.0 A23.0 23.0 0 1 1 748.1 307.1" fill="none" stroke="#e0584f" stroke-width="2.8" stroke-linecap="round"/><g transform="translate(540,200)rotate(120)scale(0.71875)translate(-32,-32)"><ellipse cx="32" cy="52" rx="15" ry="4" fill="#000" opacity="0.18"/><path d="M28.6 27 C22 29 14 33 8.3 36.8 C6.2 38.1 6.6 40.4 8.9 39.9 C16 38 23 36 28.6 34.4 Z" fill="#e8e0cf" stroke="#cdbf9f" stroke-width="0.7"/><path d="M35.4 27 C42 29 50 33 55.7 36.8 C57.8 38.1 57.4 40.4 55.1 39.9 C48 38 41 36 35.4 34.4 Z" fill="#e8e0cf" stroke="#cdbf9f" stroke-width="0.7"/><path d="M29.2 48.5 C26 50 22 52 20.4 53.6 C19.7 54.2 20.1 55.2 21 54.9 C24 54 27.4 52.6 29.6 51.6 Z" fill="#e8e0cf" stroke="#cdbf9f" stroke-width="0.7"/><path d="M34.8 48.5 C38 50 42 52 43.6 53.6 C44.3 54.2 43.9 55.2 43 54.9 C40 54 36.6 52.6 34.4 51.6 Z" fill="#e8e0cf" stroke="#cdbf9f" stroke-width="0.7"/><path d="M32 6.5 C34.2 6.5 35.5 9.5 35.9 13.5 C36.5 20 36.9 28 36.4 38 C36 46 34.4 53 32 56 C29.6 53 28 46 27.6 38 C27.1 28 27.5 20 28.1 13.5 C28.5 9.5 29.8 6.5 32 6.5 Z" fill="#f4eede" stroke="#cdbf9f" stroke-width="0.9"/><path d="M28.9 13.5 C30 11 34 11 35.1 13.5 C35.6 16.2 34 18.4 32 18.4 C30 18.4 28.4 16.2 28.9 13.5 Z" fill="#2a3050"/></g><rect x="14.0" y="12.0" width="250.0" height="38.0" rx="19.0" fill="#15121f" opacity="0.9" stroke="#3a3354" stroke-width="1.5" stroke-opacity="0.6"/><path transform="translate(28,23.8)scale(0.6666666666666666)" d="M12 21C12 21 3.5 14.2 3.5 8.6 A4.4 4.4 0 0 1 12 6 A4.4 4.4 0 0 1 20.5 8.6 C20.5 14.2 12 21 12 21Z" fill="#ef798a"/><path transform="translate(48,23.8)scale(0.6666666666666666)" d="M12 21C12 21 3.5 14.2 3.5 8.6 A4.4 4.4 0 0 1 12 6 A4.4 4.4 0 0 1 20.5 8.6 C20.5 14.2 12 21 12 21Z" fill="#ef798a"/><path transform="translate(68,23.8)scale(0.6666666666666666)" d="M12 21C12 21 3.5 14.2 3.5 8.6 A4.4 4.4 0 0 1 12 6 A4.4 4.4 0 0 1 20.5 8.6 C20.5 14.2 12 21 12 21Z" fill="#3a3550"/><circle cx="112.0" cy="31.0" r="9.0" fill="#f4cf5e" opacity="1.0" stroke="#d8a93b" stroke-width="1.4" stroke-opacity="1.0"/><text x="112.0" y="35.5" font-family="DejaVu Sans, sans-serif" font-size="12.6" font-weight="700" letter-spacing="0" fill="#8a6a16" text-anchor="middle" opacity="1.0">$</text><text x="126.0" y="36.0" font-family="DejaVu Sans, sans-serif" font-size="15" font-weight="700" letter-spacing="0" fill="#f4eede" text-anchor="start" opacity="1.0">12 450</text><rect x="210.0" y="20.0" width="44.0" height="22.0" rx="11.0" fill="#2a1f3a" opacity="1.0" stroke="#9a6fd4" stroke-width="1.2" stroke-opacity="0.8"/><text x="232.0" y="36.0" font-family="DejaVu Sans, sans-serif" font-size="13" font-weight="800" letter-spacing="0" fill="#9a6fd4" text-anchor="middle" opacity="1.0">×2</text><circle cx="460.0" cy="34.0" r="26.0" fill="#15121f" opacity="1.0" stroke="#3a3354" stroke-width="2" stroke-opacity="0.6"/><path d="M460.0 8 A26 26 0 1 1 442 52" fill="none" stroke="#5dca7a" stroke-width="4" stroke-linecap="round"/><text x="460.0" y="38.0" font-family="DejaVu Sans, sans-serif" font-size="12" font-weight="700" letter-spacing="0" fill="#f4eede" text-anchor="middle" opacity="1.0">12/20</text><text x="460.0" y="72.0" font-family="DejaVu Sans, sans-serif" font-size="9" font-weight="700" letter-spacing=".2em" fill="#a8aab5" text-anchor="middle" opacity="1.0">LEVEL 12</text><text x="876.0" y="382.0" font-family="DejaVu Sans, sans-serif" font-size="15" font-weight="700" letter-spacing="0" fill="#f4eede" text-anchor="middle" opacity="1.0">02:45</text><circle cx="876.0" cy="416.0" r="26.0" fill="#2a2540" opacity="1.0" stroke="#3a3354" stroke-width="1.6" stroke-opacity="0.7"/><rect x="868.0" y="404.0" width="6.0" height="24.0" rx="2.0" fill="#f4eede" opacity="1.0"/><rect x="880.0" y="404.0" width="6.0" height="24.0" rx="2.0" fill="#f4eede" opacity="1.0"/><text x="40.0" y="430.0" font-family="DejaVu Sans, sans-serif" font-size="12" font-weight="700" letter-spacing="0.3" fill="#5dca7a" text-anchor="start" opacity="1.0">◀ no top bar — maximum clear field; pause sits under the thumb</text></g></g></svg>