<svg xmlns="http://www.w3.org/2000/svg" viewBox="0 0 64 64" width="64" height="64">
  <defs>
    <linearGradient id="bg" x1="0" y1="0" x2="1" y2="1">
      <stop offset="0" stop-color="#34d27b"/>
      <stop offset="1" stop-color="#179a55"/>
    </linearGradient>
    <radialGradient id="glow" cx="0.5" cy="0.42" r="0.7">
      <stop offset="0" stop-color="#ffffff" stop-opacity="0.28"/>
      <stop offset="1" stop-color="#ffffff" stop-opacity="0"/>
    </radialGradient>
  </defs>
  <rect x="0" y="0" width="64" height="64" rx="14" fill="url(#bg)"/>
  <rect x="0" y="0" width="64" height="64" rx="14" fill="url(#glow)"/>
  <g transform="rotate(-12 32 32) translate(9 8) scale(2)" fill="#ffffff">
    <path d="M21 16v-2l-8-5V3.5C13 2.67 12.33 2 11.5 2S10 2.67 10 3.5V9l-8 5v2l8-2.5V19l-2 1.5V22l3.5-1 3.5 1v-1.5L13 19v-5.5l8 2.5z"/>
  </g>
</svg>
