<?xml version="1.0"?>

<svg xmlns="http://www.w3.org/2000/svg" width="0" height="0" style="position:absolute;width:0;height:0" aria-hidden="true">
<defs>
  <filter id="ph-glow" x="-80%" y="-80%" width="260%" height="260%">
    <feGaussianBlur stdDeviation="1.1" result="b"></feGaussianBlur>
    <feMerge><feMergeNode in="b"></feMergeNode><feMergeNode in="SourceGraphic"></feMergeNode></feMerge>
  </filter>

  
  <symbol id="heart" viewBox="0 0 24 24">
    <path d="M19 14c1.49-1.46 3-3.21 3-5.5A5.5 5.5 0 0 0 16.5 3c-1.76 0-3 .5-4.5 2-1.5-1.5-2.74-2-4.5-2A5.5 5.5 0 0 0 2 8.5c0 2.3 1.5 4.05 3 5.5l7 7Z" fill="#ef5365"></path>
    <path d="M8.5 6.5c-1.3 0-2.4 .7-3 1.8" fill="none" stroke="#fff" stroke-width="1.6" stroke-linecap="round" opacity=".55"></path>
  </symbol>
  <symbol id="heart-empty" viewBox="0 0 24 24">
    <path d="M19 14c1.49-1.46 3-3.21 3-5.5A5.5 5.5 0 0 0 16.5 3c-1.76 0-3 .5-4.5 2-1.5-1.5-2.74-2-4.5-2A5.5 5.5 0 0 0 2 8.5c0 2.3 1.5 4.05 3 5.5l7 7Z" fill="none" stroke="#6b6d7a" stroke-width="2" stroke-linejoin="round"></path>
  </symbol>

  
  <symbol id="coin" viewBox="0 0 32 32">
    <circle cx="16" cy="16" r="13" fill="#f4cf5e" stroke="#caa53a" stroke-width="2" filter="url(#ph-glow)"></circle>
    <circle cx="16" cy="16" r="9.5" fill="none" stroke="#caa53a" stroke-width="1.2" opacity=".6"></circle>
    <text x="16" y="21.5" text-anchor="middle" font-family="Nunito, system-ui, sans-serif" font-weight="800" font-size="15" fill="#5e4a16">₿</text>
  </symbol>

  
  <symbol id="star" viewBox="0 0 24 24">
    <path d="M11.5 2.3a.53.53 0 0 1 1 0l2.3 4.68a2.1 2.1 0 0 0 1.6 1.16l5.16.75a.53.53 0 0 1 .3.91l-3.74 3.64a2.1 2.1 0 0 0-.6 1.87l.88 5.14a.53.53 0 0 1-.77.56l-4.62-2.43a2.1 2.1 0 0 0-1.97 0L6.4 21a.53.53 0 0 1-.77-.56l.88-5.14a2.1 2.1 0 0 0-.6-1.87L2.16 9.8a.53.53 0 0 1 .3-.91l5.16-.75a2.1 2.1 0 0 0 1.6-1.16z" fill="#f4cf5e" filter="url(#ph-glow)"></path>
  </symbol>
  <symbol id="star-empty" viewBox="0 0 24 24">
    <path d="M11.5 2.3a.53.53 0 0 1 1 0l2.3 4.68a2.1 2.1 0 0 0 1.6 1.16l5.16.75a.53.53 0 0 1 .3.91l-3.74 3.64a2.1 2.1 0 0 0-.6 1.87l.88 5.14a.53.53 0 0 1-.77.56l-4.62-2.43a2.1 2.1 0 0 0-1.97 0L6.4 21a.53.53 0 0 1-.77-.56l.88-5.14a2.1 2.1 0 0 0-.6-1.87L2.16 9.8a.53.53 0 0 1 .3-.91l5.16-.75a2.1 2.1 0 0 0 1.6-1.16z" fill="none" stroke="#6b6d7a" stroke-width="2" stroke-linejoin="round"></path>
  </symbol>

  
  <symbol id="clock" viewBox="0 0 24 24">
    <circle cx="12" cy="12" r="9" fill="none" stroke="#e8e0cf" stroke-width="2"></circle>
    <path d="M12 7v5l3 2" fill="none" stroke="#e8e0cf" stroke-width="2" stroke-linecap="round" stroke-linejoin="round"></path>
  </symbol>

  
  <symbol id="pause" viewBox="0 0 24 24">
    <rect x="6" y="5" width="4" height="14" rx="1.6" fill="#f4eede"></rect>
    <rect x="14" y="5" width="4" height="14" rx="1.6" fill="#f4eede"></rect>
  </symbol>
  
  <symbol id="pause-btn" viewBox="0 0 56 56">
    <rect x="2" y="2" width="52" height="52" rx="16" fill="#2a2440" stroke="rgba(181,140,240,0.42)" stroke-width="1.5"></rect>
    <rect x="21" y="18" width="5" height="20" rx="2" fill="#f4eede"></rect>
    <rect x="30" y="18" width="5" height="20" rx="2" fill="#f4eede"></rect>
  </symbol>

  
  <symbol id="moon" viewBox="0 0 24 24">
    <path d="M21 12.8A8.5 8.5 0 1 1 11.2 3a6.6 6.6 0 0 0 9.8 9.8z" fill="#4ab4d6"></path>
  </symbol>
  <symbol id="zen-badge" viewBox="0 0 56 56">
    <rect x="2" y="2" width="52" height="52" rx="16" fill="#2a2440" stroke="#4ab4d6" stroke-width="2" filter="url(#ph-glow)"></rect>
    <path d="M37 30.5A11 11 0 1 1 24.3 17a8.6 8.6 0 0 0 12.7 13.5z" fill="#4ab4d6"></path>
    <circle cx="36" cy="20" r="1.4" fill="#cdb0f7"></circle><circle cx="40" cy="25" r="1" fill="#cdb0f7"></circle>
  </symbol>

  
  <symbol id="heart-crack" viewBox="0 0 24 24">
    <path d="M19 14c1.49-1.46 3-3.21 3-5.5A5.5 5.5 0 0 0 16.5 3c-1.76 0-3 .5-4.5 2-1.5-1.5-2.74-2-4.5-2A5.5 5.5 0 0 0 2 8.5c0 2.3 1.5 4.05 3 5.5l7 7Z" fill="#e0584f"></path>
    <path d="M12 5 9.5 9.5l3 2.5-2 4" fill="none" stroke="#14111e" stroke-width="1.6" stroke-linecap="round" stroke-linejoin="round" opacity=".7"></path>
  </symbol>
  <symbol id="check" viewBox="0 0 24 24">
    <path d="M5 13l4 4 10-11" fill="none" stroke="#5dca7a" stroke-width="3" stroke-linecap="round" stroke-linejoin="round"></path>
  </symbol>
</defs>
</svg>