<?xml version="1.0"?>

<svg xmlns="http://www.w3.org/2000/svg" width="0" height="0" style="position:absolute;width:0;height:0" aria-hidden="true">
<defs>
  <filter id="pb-glow" x="-60%" y="-60%" width="220%" height="220%">
    <feGaussianBlur stdDeviation="2" result="b"></feGaussianBlur><feMerge><feMergeNode in="b"></feMergeNode><feMergeNode in="SourceGraphic"></feMergeNode></feMerge>
  </filter>
  <linearGradient id="pb-sky" x1="0" y1="0" x2="0" y2="1">
    <stop offset="0" stop-color="var(--ink, #14111e)"></stop>
    <stop offset="0.55" stop-color="var(--sky-mid, #241d33)"></stop>
    <stop offset="1" stop-color="var(--sky-low, #3a2f3e)"></stop>
  </linearGradient>
  <radialGradient id="pb-horizon" cx="0.5" cy="1" r="0.7">
    <stop offset="0" stop-color="var(--amber-glow, #ffb84d)" stop-opacity="0.5"></stop>
    <stop offset="0.5" stop-color="var(--amber, #f2a93b)" stop-opacity="0.12"></stop>
    <stop offset="1" stop-color="var(--amber, #f2a93b)" stop-opacity="0"></stop>
  </radialGradient>

  
  <symbol id="mark" viewBox="0 0 48 48">
    <g transform="translate(4,4) scale(1.66)">
      <path d="M17.8 19.2 16 11l3.5-3.5C21 6 21.5 4 21 3c-1-.5-3 0-4.5 1.5L13 8 4.8 6.2c-.5-.1-.9.1-1.1.5l-.3.5c-.2.5-.1 1 .3 1.3L9 12l-2 3H4l-1 1 3 2 2 3 1-1v-3l3-2 3.5 5.3c.3.4.8.5 1.3.3l.5-.2c.4-.3.6-.7.5-1.2z" fill="var(--gold, #f4cf5e)" stroke="var(--gold-dim, #caa53a)" stroke-width="0.8" stroke-linejoin="round"></path>
    </g>
  </symbol>

  
  <symbol id="wordmark" viewBox="0 0 440 84">
    <text x="0" y="60" font-family="Fredoka, Baloo 2, system-ui, sans-serif" font-weight="700" font-size="62" letter-spacing="1" fill="var(--cream-100, #f4eede)">PLANEFLOW</text>
  </symbol>

  
  <symbol id="wordmark-lockup" viewBox="0 0 520 88">
    <g transform="translate(0,18) rotate(-18 26 26)"><use href="#mark" width="56" height="56"></use></g>
    <text x="74" y="62" font-family="Fredoka, Baloo 2, system-ui, sans-serif" font-weight="700" font-size="60" letter-spacing="1" fill="var(--cream-100, #f4eede)">PLANEFLOW</text>
  </symbol>

  
  <symbol id="menu-bg" viewBox="0 0 1280 720">
    <rect width="1280" height="720" fill="url(#pb-sky)"></rect>
    <rect width="1280" height="720" fill="url(#pb-horizon)"></rect>
    <g fill="var(--cream-100, #f4eede)">
      <circle cx="120" cy="90" r="2" opacity=".7"></circle><circle cx="300" cy="60" r="1.6" opacity=".5"></circle><circle cx="520" cy="110" r="2.2" opacity=".75"></circle>
      <circle cx="760" cy="70" r="1.6" opacity=".5"></circle><circle cx="980" cy="120" r="2" opacity=".65"></circle><circle cx="1150" cy="80" r="1.8" opacity=".6"></circle>
      <circle cx="200" cy="170" r="1.4" opacity=".45"></circle><circle cx="880" cy="190" r="1.6" opacity=".5"></circle><circle cx="1080" cy="210" r="1.4" opacity=".4"></circle>
    </g>
    <g filter="url(#pb-glow)"><path d="M1135 120A52 52 0 1 1 1075 60a40 40 0 0 0 60 60z" fill="var(--phosphor, #cdb0f7)" opacity=".9"></path></g>
    <g fill="var(--chip, #2a2440)">
      <rect x="60" y="430" width="170" height="150" rx="10"></rect><rect x="250" y="470" width="120" height="110" rx="10"></rect>
      <rect x="900" y="450" width="150" height="130" rx="10"></rect><rect x="1070" y="478" width="150" height="102" rx="10"></rect>
    </g>
    <g>
      <rect x="430" y="300" width="34" height="280" rx="8" fill="var(--purple-700, #3a3354)"></rect>
      <path d="M412 300 L482 300 L470 268 L424 268 Z" fill="var(--wood, #4a3f33)"></path>
      <rect x="420" y="262" width="54" height="26" rx="6" fill="var(--chip, #2a2440)"></rect>
      <rect x="426" y="268" width="42" height="14" rx="3" fill="var(--amber-glow, #ffb84d)" opacity=".9" filter="url(#pb-glow)"></rect>
      <circle cx="447" cy="250" r="3" fill="var(--red, #e0584f)" filter="url(#pb-glow)"></circle>
    </g>
    <g><rect x="540" y="420" width="320" height="160" rx="16" fill="var(--purple-700, #3a3354)"></rect>
      <rect x="540" y="420" width="320" height="34" rx="16" fill="var(--purple-600, #46406a)"></rect>
      <g fill="var(--amber-glow, #ffb84d)" filter="url(#pb-glow)">
        <rect x="580" y="490" width="26" height="20" rx="4"></rect><rect x="620" y="490" width="26" height="20" rx="4" opacity=".85"></rect>
        <rect x="700" y="490" width="26" height="20" rx="4" opacity=".9"></rect><rect x="760" y="490" width="26" height="20" rx="4"></rect>
        <rect x="800" y="490" width="26" height="20" rx="4" opacity=".8"></rect>
      </g>
    </g>
    <g fill="var(--amber-glow, #ffb84d)" opacity=".7">
      <rect x="90" y="460" width="16" height="14" rx="3"></rect><rect x="120" y="460" width="16" height="14" rx="3" opacity=".7"></rect><rect x="160" y="500" width="16" height="14" rx="3"></rect>
      <rect x="930" y="480" width="16" height="14" rx="3"></rect><rect x="1100" y="505" width="16" height="14" rx="3" opacity=".7"></rect>
    </g>
    <rect x="0" y="600" width="1280" height="120" fill="var(--navy-900, #1a1d2e)"></rect>
    <path d="M40 660 H1240" stroke="var(--amber-glow, #ffb84d)" stroke-width="4" stroke-dasharray="22 26" opacity=".5"></path>
    <g fill="var(--amber-glow, #ffb84d)" filter="url(#pb-glow)">
      <circle cx="120" cy="630" r="3"></circle><circle cx="320" cy="630" r="3"></circle><circle cx="640" cy="630" r="3"></circle><circle cx="960" cy="630" r="3"></circle><circle cx="1160" cy="630" r="3"></circle>
    </g>
  </symbol>
</defs>
</svg>